<svg width="40" height="40" viewBox="0 0 40 40" fill="none" xmlns="http://www.w3.org/2000/svg"><path d="M39.711.225a.779.779 0 0 0-.81-.18L6.498 11.616a4.26 4.26 0 0 0-3.864-.307 4.28 4.28 0 0 0-2.31 5.584 41.895 41.895 0 0 0 9.114 13.657c3.923 3.929 8.511 7 13.638 9.126a4.24 4.24 0 0 0 1.627.325 4.274 4.274 0 0 0 3.948-2.638 4.266 4.266 0 0 0-.023-3.319L39.901 1.034a.782.782 0 0 0-.19-.809ZM11.404 11.523l3.434-1.226a1.99 1.99 0 0 1-.24 2.94 1.974 1.974 0 0 1-1.47.395 1.975 1.975 0 0 1-1.318-.762 1.979 1.979 0 0 1-.406-1.347Zm15.806 25.24a2.709 2.709 0 0 1-3.537 1.468c-9.99-4.144-17.769-11.934-21.907-21.938a2.697 2.697 0 0 1 0-2.074 2.691 2.691 0 0 1 1.466-1.467 2.686 2.686 0 0 1 2.071 0 2.691 2.691 0 0 1 1.465 1.467A34.941 34.941 0 0 0 14.37 25.61a34.888 34.888 0 0 0 11.376 7.612 2.715 2.715 0 0 1 1.465 3.542Zm6.93-23.69a1.975 1.975 0 0 1-1.53-.777 1.991 1.991 0 0 1 1.837-3.186c.337.043.652.174.92.372l-1.226 3.59Zm1.746-5.11a3.545 3.545 0 0 0-5.216 2.657 3.534 3.534 0 0 0 .703 2.627 3.522 3.522 0 0 0 2.25 1.344l-1.551 4.54-1.783-1.37a.78.78 0 1 0-.95 1.24l2.2 1.69-4.033 11.81a4.248 4.248 0 0 0-1.164-.723C18.074 28.348 11.635 21.9 8.21 13.621a4.272 4.272 0 0 0-.437-.802l2.089-.746c.073.63.315 1.232.71 1.748a3.524 3.524 0 0 0 2.823 1.391 3.52 3.52 0 0 0 2.153-.735 3.532 3.532 0 0 0 1.358-2.355 3.552 3.552 0 0 0-.528-2.375l9.698-3.463.367.888a.78.78 0 1 0 1.442-.597l-.338-.816L37.901 2.06l-2.015 5.902Z" fill="#FF7010"/><path d="M8.425 20.959a.778.778 0 0 0-1.092-.233.783.783 0 0 0-.218 1.081.78.78 0 0 0 1.31-.848ZM7.239 19.018a36.997 36.997 0 0 1-2.031-4.152.78.78 0 1 0-1.442.598 38.559 38.559 0 0 0 2.118 4.328.78.78 0 1 0 1.355-.774ZM24.413 9.999a3.559 3.559 0 0 0-3.982 3.06 3.557 3.557 0 0 0 3.522 4.018 3.559 3.559 0 0 0 3.515-3.09 3.557 3.557 0 0 0-3.055-3.988Zm1.508 3.783a1.993 1.993 0 0 1-2.23 1.715 1.993 1.993 0 0 1-1.713-2.235 1.993 1.993 0 0 1 2.231-1.714 1.993 1.993 0 0 1 1.712 2.234ZM24.21 19.717a3.559 3.559 0 0 0-3.982 3.06 3.534 3.534 0 0 0 .703 2.627 3.524 3.524 0 0 0 2.82 1.39 3.559 3.559 0 0 0 3.514-3.09 3.557 3.557 0 0 0-3.055-3.987Zm1.508 3.783a1.993 1.993 0 0 1-2.23 1.715 1.975 1.975 0 0 1-1.319-.763 1.993 1.993 0 0 1 1.837-3.186 1.993 1.993 0 0 1 1.712 2.234ZM19.065 16.48l-2.398-.316a.78.78 0 0 0-.204 1.55l2.398.315a.78.78 0 0 0 .875-.672.78.78 0 0 0-.671-.877ZM17.849 22.246l-.212-1.611a.78.78 0 1 0-1.547.203l.212 1.612a.78.78 0 1 0 1.547-.204Z" fill="#FF7010"/>
</svg>
