<svg width="32" height="32" viewBox="0 0 32 32" fill="none" xmlns="http://www.w3.org/2000/svg">
<g id="Group 2">
<path id="Vector" d="M31.814 0.180314C31.6432 0.0118144 31.3908 -0.0444355 31.165 0.0364394L5.20549 9.29248C4.30361 8.74098 3.15968 8.61186 2.11049 9.0463C0.368934 9.76773 -0.461127 11.7715 0.260246 13.5132C1.96143 17.62 4.41761 21.296 7.56079 24.4392C10.704 27.5824 14.38 30.0386 18.4868 31.7397C18.9133 31.9164 19.3553 32 19.7906 32C21.1328 31.9999 22.409 31.2046 22.9536 29.8894C23.3201 29.0046 23.2855 28.0522 22.9349 27.2344L31.9662 0.827375C32.0439 0.600376 31.9847 0.348876 31.814 0.180314ZM9.1361 9.21805L11.8873 8.23717C12.2103 8.5813 12.3678 9.05505 12.3047 9.53417C12.2491 9.95604 12.0326 10.3311 11.695 10.5902C11.3575 10.8492 10.9395 10.9612 10.5173 10.9057C10.0955 10.8502 9.72048 10.6337 9.46142 10.2961C9.22273 9.98504 9.10917 9.60555 9.1361 9.21805ZM21.7988 29.411C21.3411 30.5159 20.0698 31.0424 18.9651 30.5847C10.9627 27.27 4.72999 21.0373 1.41518 13.0348C1.19349 12.4996 1.19349 11.9102 1.41518 11.3749C1.63687 10.8397 2.05368 10.4229 2.58887 10.2012C3.12405 9.97954 3.71355 9.97954 4.24874 10.2012C4.78393 10.4229 5.20074 10.8397 5.42242 11.3749C6.84123 14.8003 8.88998 17.8665 11.5117 20.4882C14.1335 23.11 17.1996 25.1586 20.625 26.5775C21.7299 27.0351 22.2565 28.3063 21.7988 29.411ZM27.3514 10.458C27.2949 10.4567 27.2383 10.4534 27.1818 10.446C26.7599 10.3905 26.3849 10.174 26.1259 9.83642C25.8669 9.49886 25.7548 9.08055 25.8103 8.65873C25.925 7.78786 26.7266 7.17274 27.5978 7.28724C27.8665 7.32261 28.1188 7.42686 28.334 7.58542L27.3514 10.458ZM28.7494 6.37018C28.4449 6.20436 28.1104 6.09393 27.7609 6.04793C26.2064 5.84274 24.7756 6.9413 24.571 8.49561C24.4719 9.24848 24.6719 9.99492 25.1342 10.5974C25.5795 11.1777 26.217 11.5569 26.9361 11.6725L25.6939 15.3049L24.2653 14.2087C23.9914 13.9987 23.599 14.0502 23.389 14.324C23.1788 14.5979 23.2305 14.9902 23.5043 15.2003L25.2671 16.553L22.0363 26.0001C21.7653 25.7645 21.4532 25.5674 21.1036 25.4226C14.4799 22.6789 9.32117 17.5202 6.57761 10.8965C6.48223 10.6662 6.36373 10.4523 6.22705 10.2553L7.90073 9.65854C7.95917 10.1628 8.15273 10.6438 8.46979 11.057C8.93204 11.6595 9.60135 12.0459 10.3542 12.1449C10.4804 12.1615 10.6061 12.1698 10.7312 12.1698C11.353 12.1698 11.9545 11.9667 12.456 11.5819C13.0586 11.1195 13.4449 10.4503 13.5441 9.69729C13.633 9.02136 13.4753 8.35186 13.1211 7.79724L20.8903 5.02712L21.1847 5.73799C21.2845 5.97868 21.5171 6.12399 21.7624 6.12399C21.8421 6.12399 21.9231 6.10861 22.0013 6.07624C22.3202 5.94418 22.4716 5.57849 22.3396 5.25962L22.0692 4.6068L30.3641 1.64919L28.7494 6.37018Z" fill="#FF7010"/>
<path id="Vector_2" d="M6.74992 16.7673C6.74805 16.7643 6.74286 16.7564 6.74086 16.7535C6.54949 16.4665 6.16218 16.3894 5.87499 16.5806C5.5883 16.7715 5.51055 17.1589 5.7003 17.4461C5.81999 17.63 6.02024 17.7303 6.2248 17.7303C6.34055 17.7303 6.45761 17.6981 6.56211 17.631C6.85249 17.4443 6.93655 17.0576 6.74992 16.7673Z" fill="#FF7010"/>
<path id="Vector_3" d="M5.79936 15.2146C5.1903 14.1467 4.6428 13.0291 4.17212 11.8929C4.04006 11.5739 3.67424 11.4226 3.35556 11.5547C3.03662 11.6868 2.88525 12.0524 3.01737 12.3713C3.50799 13.5557 4.07874 14.7207 4.71362 15.8338C4.82893 16.0359 5.03993 16.1493 5.25705 16.1493C5.36205 16.1493 5.46849 16.1228 5.56611 16.0671C5.86593 15.8961 5.97043 15.5144 5.79936 15.2146Z" fill="#FF7010"/>
<path id="Vector_4" d="M19.5582 7.99923C19.4343 7.98286 19.3085 7.97461 19.1843 7.97461C17.7645 7.97461 16.5538 9.03742 16.3683 10.4468C16.1637 12.001 17.2617 13.432 18.8159 13.6367C18.9398 13.653 19.0656 13.6613 19.1898 13.6613C20.6096 13.6613 21.8202 12.5985 22.0058 11.189C22.2103 9.63479 21.1124 8.20386 19.5582 7.99923ZM20.7665 11.0259C20.6625 11.8157 19.9847 12.4112 19.1898 12.4112C19.12 12.4112 19.049 12.4066 18.9791 12.3973C18.1081 12.2827 17.493 11.4809 17.6076 10.6099C17.7116 9.82017 18.3894 9.22467 19.1843 9.22467C19.2541 9.22467 19.3251 9.22929 19.395 9.23854C20.2659 9.35329 20.8811 10.155 20.7665 11.0259Z" fill="#FF7010"/>
<path id="Vector_5" d="M19.3956 15.7734C19.2717 15.757 19.1459 15.7488 19.0217 15.7488C17.6018 15.7488 16.3912 16.8116 16.2057 18.221C16.1065 18.974 16.3065 19.7203 16.7689 20.3229C17.2311 20.9254 17.9003 21.3118 18.6533 21.411C18.7771 21.4273 18.9028 21.4355 19.027 21.4355C20.4468 21.4355 21.6575 20.3726 21.8431 18.9631C22.0478 17.409 20.9498 15.9782 19.3956 15.7734ZM20.6039 18.8001C20.4999 19.5899 19.822 20.1855 19.0272 20.1855C18.9573 20.1855 18.8864 20.1808 18.8165 20.1716C18.3947 20.116 18.0197 19.8995 17.7606 19.5619C17.5015 19.2243 17.3895 18.8061 17.445 18.3841C17.549 17.5944 18.2268 16.9988 19.0217 16.9988C19.0915 16.9988 19.1625 17.0035 19.2324 17.0127C20.1032 17.1274 20.7185 17.9292 20.6039 18.8001Z" fill="#FF7010"/>
<path id="Vector_6" d="M15.2734 13.1841L13.3524 12.9312C13.0103 12.8857 12.6962 13.127 12.6511 13.4692C12.606 13.8114 12.8469 14.1253 13.1891 14.1704L15.1101 14.4233C15.1378 14.427 15.1653 14.4288 15.1925 14.4288C15.5013 14.4288 15.7699 14.1998 15.8113 13.8853C15.8565 13.5432 15.6156 13.2292 15.2734 13.1841Z" fill="#FF7010"/>
<path id="Vector_7" d="M14.2993 17.7964L14.1297 16.5074C14.0846 16.1651 13.7707 15.9241 13.4285 15.9693C13.0862 16.0144 12.8454 16.3283 12.8904 16.6705L13.0601 17.9595C13.1015 18.2741 13.37 18.503 13.6789 18.503C13.7061 18.503 13.7336 18.5012 13.7612 18.4976C14.1035 18.4525 14.3443 18.1386 14.2993 17.7964Z" fill="#FF7010"/>
</g>
</svg>
