<?xml version="1.0" standalone="no"?>
<!DOCTYPE svg PUBLIC "-//W3C//DTD SVG 20010904//EN"
 "http://www.w3.org/TR/2001/REC-SVG-20010904/DTD/svg10.dtd">
<svg version="1.0" xmlns="http://www.w3.org/2000/svg"
 width="700.000000pt" height="700.000000pt" viewBox="0 0 700.000000 700.000000"
 preserveAspectRatio="xMidYMid meet">
<metadata>
Created by potrace 1.14, written by Peter Selinger 2001-2017
</metadata>
<g transform="translate(0.000000,700.000000) scale(0.100000,-0.100000)"
fill="#000000" stroke="none">
<path d="M6700 6954 c-174 -63 -400 -144 -430 -154 -14 -4 -77 -27 -140 -50
-109 -40 -162 -59 -360 -128 -47 -17 -134 -48 -195 -70 -60 -22 -182 -65 -270
-97 -88 -31 -216 -77 -285 -102 -69 -24 -195 -69 -280 -100 -85 -30 -243 -86
-350 -125 -205 -73 -256 -91 -515 -184 -88 -31 -209 -74 -270 -96 -60 -21
-139 -49 -175 -62 -36 -13 -566 -202 -1179 -421 l-1113 -397 -37 19 c-104 57
-209 85 -329 88 -306 8 -575 -159 -704 -435 -73 -155 -86 -377 -32 -537 37
-107 131 -318 246 -547 464 -929 1097 -1719 1933 -2411 26 -22 58 -46 69 -54
12 -8 23 -18 26 -21 3 -4 59 -47 125 -96 66 -49 122 -91 125 -94 17 -17 320
-218 445 -295 343 -212 922 -499 1130 -561 62 -19 258 -26 320 -12 17 4 42 10
58 13 15 3 51 15 80 26 282 111 465 369 473 669 3 112 -6 181 -36 271 l-19 56
31 89 c16 49 84 247 150 439 66 193 142 415 169 495 28 80 63 183 79 230 31
94 131 387 300 880 61 179 120 350 130 380 10 30 75 222 145 425 227 666 287
839 307 900 11 33 22 67 25 75 3 8 27 78 54 155 26 77 104 307 174 510 70 204
140 408 155 455 16 47 77 225 136 395 58 171 110 325 116 343 27 95 -42 185
-141 181 -9 0 -72 -20 -141 -45z m-201 -705 c-72 -211 -149 -436 -170 -499
-22 -63 -41 -120 -44 -127 -3 -9 -23 -6 -71 13 -220 83 -436 51 -616 -91 -233
-183 -302 -510 -163 -774 20 -37 58 -93 86 -124 88 -99 243 -186 352 -196 8
-1 10 -35 1 -43 -5 -6 -39 -102 -204 -588 -29 -85 -55 -157 -57 -159 -3 -4
-92 56 -103 69 -17 20 -224 172 -247 181 -62 24 -137 -10 -171 -76 -13 -26 -8
-96 10 -124 7 -12 104 -91 215 -176 l202 -155 -115 -338 c-63 -185 -133 -391
-156 -457 -45 -131 -73 -216 -266 -780 -159 -465 -164 -479 -168 -483 -1 -2
-28 14 -61 36 -69 47 -106 66 -238 122 -94 40 -389 183 -465 227 -19 11 -62
35 -95 53 -198 109 -557 348 -710 472 -260 211 -325 268 -525 468 -223 222
-357 375 -526 598 -40 54 -77 102 -81 107 -21 25 -146 210 -209 310 -147 232
-305 529 -418 790 -62 141 -84 187 -110 226 l-17 26 93 32 c51 18 129 46 174
62 95 34 104 35 104 10 0 -37 42 -153 77 -214 20 -34 68 -94 107 -132 217
-215 560 -234 807 -47 56 43 70 56 126 130 71 93 114 225 115 350 0 117 -17
192 -64 285 -16 33 -28 60 -26 62 2 2 23 10 48 18 25 8 63 22 85 31 22 8 144
52 270 96 450 160 821 292 855 305 73 29 433 155 435 153 1 -2 14 -34 29 -73
38 -97 61 -130 100 -149 67 -32 139 -9 175 54 29 51 26 81 -14 178 l-34 83 27
10 c15 6 70 25 122 44 52 18 120 42 150 53 30 11 183 66 340 122 157 56 310
111 340 122 30 11 168 60 305 109 138 48 311 110 385 137 74 27 136 48 137 47
2 -1 -56 -175 -128 -386z m-393 -864 c22 -9 49 -23 61 -30 l22 -15 -104 -305
c-57 -168 -107 -309 -110 -314 -12 -20 -116 7 -175 44 -220 139 -218 450 5
593 80 51 214 64 301 27z m-3447 -285 c48 -104 36 -240 -30 -336 -171 -249
-557 -175 -624 121 -20 91 -18 95 55 121 36 13 171 61 300 108 l235 85 19 -22
c10 -12 30 -47 45 -77z m-1785 -315 c115 -30 236 -127 289 -231 13 -27 46 -98
72 -159 86 -200 219 -460 344 -670 192 -326 372 -574 666 -920 54 -64 452
-465 525 -530 25 -22 88 -75 140 -119 52 -43 106 -88 120 -100 62 -53 269
-203 410 -298 312 -210 620 -378 985 -538 185 -81 236 -119 300 -226 164 -271
32 -606 -278 -704 -61 -19 -163 -19 -236 0 -76 20 -279 108 -500 217 -581 286
-1132 661 -1619 1100 -152 136 -443 434 -571 583 -68 80 -133 156 -145 170
-47 55 -197 252 -282 370 -87 122 -304 454 -304 466 0 3 -8 18 -19 32 -69 97
-297 542 -405 790 -99 226 -113 323 -66 463 56 166 187 280 360 313 75 14 131
12 214 -9z"/>
<path d="M4080 5244 c-224 -42 -405 -201 -479 -418 -33 -100 -38 -247 -10
-345 80 -289 321 -472 616 -466 164 3 302 63 423 185 279 280 227 742 -109
959 -123 79 -295 113 -441 85z m262 -298 c146 -69 227 -248 183 -402 -57 -202
-263 -307 -458 -234 -96 36 -191 141 -213 235 -14 61 -7 159 16 218 24 64 107
158 157 178 15 7 44 18 63 26 56 22 184 11 252 -21z"/>
<path d="M2842 4160 c-83 -35 -102 -159 -35 -222 31 -28 48 -35 111 -43 111
-14 131 -16 187 -25 53 -8 123 -17 194 -25 92 -10 175 80 151 164 -23 82 -56
102 -189 116 -31 4 -63 8 -71 10 -8 2 -42 7 -75 10 -33 4 -71 9 -85 11 -58 11
-167 13 -188 4z"/>
<path d="M4055 3545 c-200 -34 -366 -159 -454 -339 -45 -94 -61 -155 -65 -252
-6 -172 59 -337 183 -460 71 -71 145 -117 243 -151 62 -22 90 -26 193 -26 103
0 130 3 192 25 219 76 375 254 417 477 80 420 -289 797 -709 726z m247 -298
c222 -109 268 -397 91 -565 -146 -139 -382 -125 -504 30 -150 188 -78 457 146
546 76 31 192 26 267 -11z"/>
<path d="M2885 3488 c-38 -20 -72 -77 -70 -118 7 -102 41 -314 56 -344 22 -46
62 -70 117 -70 79 0 134 56 135 136 0 47 -32 287 -44 324 -11 36 -42 66 -84
82 -38 15 -66 12 -110 -10z"/>
<path d="M718 4465 c-35 -20 -68 -75 -68 -115 0 -56 182 -457 322 -711 67
-120 78 -135 114 -154 79 -41 172 2 192 90 11 51 6 65 -76 216 -93 172 -140
267 -230 469 -65 145 -84 179 -112 198 -38 26 -101 29 -142 7z"/>
<path d="M1305 3381 c-55 -25 -79 -64 -78 -123 2 -87 72 -147 155 -133 116 20
152 177 55 242 -48 31 -86 36 -132 14z"/>
</g>
</svg>
