<svg width="279" height="117" viewBox="0 0 279 117" fill="none" xmlns="http://www.w3.org/2000/svg">
<path fill-rule="evenodd" clip-rule="evenodd" d="M249.952 1.36865L254.684 18.093L174.5 55.5489L158.271 50.2441L249.952 1.36865Z" fill="#A86A37"/>
<path opacity="0.2" fill-rule="evenodd" clip-rule="evenodd" d="M278.571 103.553L159.184 51.7393L93.331 95.3098L0.549971 56.4732L0.114136 76.4469L93.2895 116.145V116.166L93.331 116.156L93.3414 116.166V116.156L257.765 110.664L278.571 103.553Z" fill="#7B2620"/>
<path fill-rule="evenodd" clip-rule="evenodd" d="M90.1971 6.39354L168.533 5.57341L250.076 1.00562L158.457 50.1821L0.404663 54.3658L74.0297 23.5332L90.1971 6.39354Z" fill="#A86A37"/>
<path fill-rule="evenodd" clip-rule="evenodd" d="M158.478 71.8583L0.871692 74.2771L0.394348 54.3865L158.499 49.4553L158.478 71.8583Z" fill="#8E5326"/>
<path fill-rule="evenodd" clip-rule="evenodd" d="M256.78 108.162L158.115 68.474V50.3066L257.755 88.5516L256.78 108.162Z" fill="#A46633"/>
<g style="mix-blend-mode:multiply" opacity="0.2">
<path fill-rule="evenodd" clip-rule="evenodd" d="M158.115 62.0791V68.474L213.113 92.8702C213.875 92.0497 214.462 91.0816 214.836 90.0257C215.531 87.9494 215.303 78.0664 213.227 71.7961L198.388 65.6503C188.8 64.6329 174.334 63.2522 158.115 62.0791Z" fill="#D18C27"/>
</g>
<g style="mix-blend-mode:multiply" opacity="0.2">
<path fill-rule="evenodd" clip-rule="evenodd" d="M158.488 56.8156C148.807 56.1616 138.699 55.601 128.717 55.2169C114.5 53.8258 68.6648 53.6597 55.1435 53.3379L53.5454 53.5663C34.296 56.089 28.9727 70.8512 29.6057 73.6438C29.7056 74.0549 29.8375 74.4575 30 74.8481L158.488 73.2286V56.8156Z" fill="#D18C27"/>
</g>
<path d="M202.321 69.3872C201.979 69.1381 161.435 64.4872 123.051 63.0339C84.7596 59.2862 41.8817 61.2275 41.5289 61.4663C38.0422 63.8228 39.1421 70.0517 39.7544 72.7197C41.0515 78.3775 49.2079 84.7724 65.8423 89.7139C80.4635 94.3025 100.325 97.6349 121.193 99.0572C142.062 100.479 162.089 99.898 177.032 97.3131C193.999 94.6658 203.639 90.1396 205.434 84.6894C206.275 82.0733 206.503 72.4705 202.321 69.3872Z" fill="#E58848"/>
<path d="M92.2311 51.1577H92.8953C94.5452 51.0643 95.614 51.0436 97.347 50.9813C99.08 50.919 100.927 50.4518 102.67 50.4207H103.469C104.507 50.4207 105.493 50.3065 106.51 50.265C106.956 50.265 107.423 50.265 107.89 50.265C109.685 50.265 111.844 50.8463 113.649 50.8878C115.455 50.9294 117.198 50.9916 119.014 51.0643C120.83 51.137 122.605 51.0643 124.421 51.1474C126.237 51.2304 128.084 51.3031 129.9 51.4484C131.716 51.5938 133.532 51.7287 135.337 51.9052C137.143 52.0817 138.793 52.4035 140.526 52.6215C142.259 52.8395 143.919 53.1198 145.652 53.3586C147.385 53.5974 149.927 53.3586 151.619 53.6285C153.31 53.8984 154.732 54.3241 156.413 54.6667C158.094 55.0092 159.682 55.2999 161.249 55.6321C162.816 55.9643 163.542 56.5664 165.036 56.909C166.531 57.2516 168.959 57.3554 170.37 57.7291C171.781 58.1029 172.342 58.6842 173.66 59.0787C174.978 59.4732 177.105 59.7224 178.319 60.1169C179.533 60.5114 180.394 61.02 181.515 61.4457C182.636 61.8713 182.667 62.4319 183.674 62.8887C184.68 63.3455 187.43 63.605 188.312 64.0618C189.194 64.5186 190.138 64.9961 190.906 65.4633C191.674 65.9304 190.678 66.5014 191.321 66.9582C191.965 67.415 192.598 67.9029 193.106 68.37C193.615 68.8372 194.58 69.3251 194.953 69.7923C195.213 70.2392 195.415 70.717 195.555 71.2145C195.871 71.6609 196.136 72.1414 196.344 72.6472C196.53 73.0994 196.655 73.5741 196.717 74.059C196.717 74.5262 195.057 74.8688 194.891 75.3255C194.725 75.7823 195.493 76.3014 195.182 76.7478C194.786 77.2091 194.352 77.6363 193.885 78.0247C193.438 78.4503 193.366 78.9279 192.847 79.3431C192.328 79.7584 191.072 80.0594 190.377 80.4539C189.682 80.8484 190.512 81.4921 189.692 81.8762C188.872 82.2603 186.807 82.3952 185.863 82.7378C184.919 83.0804 184.825 83.641 183.788 83.9628C182.75 84.2847 179.824 84.1393 178.599 84.4404C177.375 84.7414 177.727 85.4785 176.462 85.6965C175.196 85.9145 174.106 86.3194 172.736 86.5582C172.303 86.6228 171.866 86.6609 171.429 86.6724C170.515 86.6724 169.447 86.6724 168.523 86.7243C168.108 86.7243 167.714 86.7243 167.382 86.8177C165.929 87.015 164.933 87.4094 163.397 87.5859C163.106 87.5859 162.785 87.5859 162.453 87.6482C161.29 87.6482 159.921 87.6482 158.748 87.6482H158.053C156.465 87.7832 155.676 88.3957 153.995 88.4891H153.829C152.179 88.5514 149.824 88.1569 148.153 88.2192C146.482 88.2815 145.33 88.7798 143.691 88.8421H143.494C141.73 88.8421 139.509 88.4164 137.724 88.4164H136.925C135.804 88.4683 134.735 88.5929 133.625 88.6345C133.262 88.6345 132.899 88.6345 132.525 88.6345C130.699 88.6345 128.883 88.6864 127.056 88.6345C125.23 88.5825 123.352 88.0116 121.536 87.8974C119.72 87.7832 117.873 87.8143 116.057 87.669C114.241 87.5236 112.539 87.2018 110.744 87.0253C108.949 86.8489 107.184 86.6724 105.41 86.4648C103.636 86.2571 101.259 86.4647 99.5262 86.2675C97.7933 86.0703 96.5272 85.4474 94.8358 85.1775C93.1443 84.9075 92.0962 84.347 90.467 84.0459C88.8378 83.7448 86.2125 83.859 84.6455 83.5268C83.0786 83.1946 82.2588 82.6236 80.7645 82.2707C79.2702 81.9177 77.9731 81.5336 76.5619 81.1599C75.1506 80.7861 74.3307 80.3086 73.0129 79.9141C71.695 79.5196 69.2875 79.3431 68.0631 78.9279C66.8386 78.5126 65.3443 78.1389 64.2235 77.7029C63.1028 77.2669 63.3415 76.6647 62.3349 76.2287C61.3283 75.7927 60.1661 75.3775 59.2841 74.9207C58.402 74.4639 57.2086 74.0486 56.42 73.5711C55.7795 73.1376 55.1629 72.6697 54.5729 72.1696C53.9295 71.6921 54.2305 71.2145 53.722 70.737C53.2135 70.2594 50.7957 69.8027 50.4221 69.3355C50.0485 68.8684 50.3391 68.3804 50.1004 67.9029C49.8617 67.4253 50.6815 66.9997 50.5777 66.5325C50.4739 66.0654 49.841 65.5671 49.8721 65.1103C49.9032 64.6535 50.4117 64.2175 50.5777 63.7711C50.7438 63.3247 50.5777 62.8472 50.9202 62.4008C51.2626 61.9544 52.373 61.6222 52.8192 61.1965C53.4049 60.7643 54.0147 60.3657 54.6456 60.0027C55.2267 59.5978 55.0295 59.0891 55.7351 58.705C56.4408 58.3209 57.9039 58.0717 58.7237 57.6669C59.5435 57.262 59.2322 56.7222 60.1765 56.3796C61.1208 56.037 62.2519 55.7152 63.2896 55.3933C64.3273 55.0715 65.7697 54.8535 66.9319 54.5525C68.0942 54.2514 69.3809 54.0126 70.6469 53.7531C71.9129 53.4936 72.6704 53.0575 74.0402 52.8188C75.4099 52.58 77.0392 52.4554 78.492 52.2478C78.907 52.2478 79.3844 52.1647 79.8928 52.144C80.723 52.144 81.6362 52.144 82.4664 52.0817C82.8918 52.0817 83.2861 52.0817 83.6389 51.9986C85.1644 51.8325 86.1087 51.4173 87.7275 51.2823L88.8586 51.2097C89.8963 51.2097 91.1208 51.2097 92.2208 51.137L92.2311 51.1577ZM94.8254 49.1438C85.8627 49.4281 76.9306 50.3369 68.0942 51.8637C60.6434 53.234 54.687 54.9781 50.3909 57.1478C46.0948 59.3175 43.6874 61.6741 43.2204 64.2486C42.7535 66.8232 44.3723 69.6573 48.0769 72.4084C51.7815 75.1594 57.3436 77.7548 64.5971 80.1217C72.6593 82.6591 80.8918 84.6192 89.2322 85.9872C98.9898 87.6457 108.826 88.7996 118.703 89.4442C129.037 90.1491 139.4 90.3085 149.751 89.9217C158.715 89.6483 167.647 88.7394 176.482 87.2018C183.933 85.8315 189.889 84.0874 194.185 81.9177C198.482 79.748 200.899 77.4018 201.356 74.8272C201.813 72.2527 200.215 69.4186 196.5 66.6571C190.419 62.1412 184.68 60.4283 179.979 58.9542C171.92 56.4179 163.691 54.4578 155.355 53.0887C145.593 51.4308 135.753 50.2769 125.873 49.6317C115.54 48.9286 105.176 48.7657 94.8254 49.1438Z" fill="#F78E48" stroke="#F78E48" stroke-width="0.52"/>
<path d="M149.741 89.9217C139.39 90.3084 129.026 90.149 118.693 89.4441C108.816 88.7995 98.9794 87.6456 89.2217 85.9871C80.8813 84.6191 72.6489 82.659 64.5867 80.1217C57.3227 77.7547 51.771 75.1594 48.0664 72.4083C44.3618 69.6573 42.7223 66.9062 43.21 64.2486C43.6977 61.591 46.0948 59.2863 50.3805 57.1477C54.6662 55.0092 60.633 53.234 68.0837 51.8636C76.9202 50.3369 85.8522 49.428 94.815 49.1437C105.166 48.7656 115.529 48.9285 125.863 49.6316C135.743 50.2769 145.583 51.4307 155.344 53.0886C163.681 54.4578 171.91 56.4179 179.969 58.9541C187.233 61.3107 192.785 63.906 196.489 66.6571C200.194 69.4081 201.833 72.1592 201.346 74.8272C200.858 77.4952 198.471 79.7791 194.175 81.9177C189.879 84.0562 183.923 85.8314 176.472 87.2018C167.637 88.7394 158.704 89.6483 149.741 89.9217ZM93.7669 48.3963C51.221 50.0469 29.4293 60.8539 45.2335 72.5537C61.0378 84.2535 108.232 92.3821 150.789 90.7314C193.345 89.0808 215.126 78.2738 199.332 66.5844C183.539 54.895 136.323 46.7456 93.7669 48.3963Z" fill="#E58848"/>
<path d="M98.8206 51.5315C98.613 51.5315 98.1461 51.6457 97.7829 51.708C96.7044 51.9296 95.6125 52.0788 94.5141 52.1544H93.5698C92.8745 52.1544 92.1897 52.1544 91.5878 52.1544C90.9859 52.1544 90.6123 52.1544 90.2076 52.1544H89.6265C89.3671 52.1544 88.8794 52.2894 88.4851 52.3724C87.6004 52.5895 86.7026 52.749 85.7974 52.85C85.2267 52.9123 84.5729 52.9642 83.8258 52.9849C83.2654 52.9849 82.7258 52.9849 82.2485 52.9849H81.2108H80.8683C80.173 53.0888 79.4882 53.1614 78.7929 53.2445C78.0976 53.3275 77.2156 53.4209 76.6241 53.5248C76.2165 53.6109 75.8145 53.7218 75.4204 53.857C74.7747 54.0796 74.1164 54.2633 73.4488 54.4072L72.6808 54.5629C71.7054 54.7705 70.7715 54.9574 69.9413 55.165C69.3498 55.3104 68.7583 55.4349 68.1772 55.5595C67.5961 55.6841 66.9112 55.819 66.4754 55.954L66.0914 56.0682C65.1782 56.3381 64.317 56.5977 63.5698 56.8779C63.4599 56.964 63.3711 57.0741 63.3104 57.1998C63.0845 57.6184 62.7165 57.9424 62.2727 58.1133C61.6876 58.3586 61.0838 58.5565 60.4671 58.7051C60.1124 58.7906 59.7653 58.9052 59.4294 59.0476C59.2716 59.1572 59.1519 59.3132 59.0869 59.494C58.9463 59.8124 58.7244 60.0881 58.4436 60.2934C58.1738 60.4803 57.8728 60.6567 57.5822 60.8229C57.2663 60.9907 56.9674 61.1889 56.6898 61.4146C56.3479 61.702 55.9671 61.9397 55.5587 62.1205C55.3051 62.2231 55.0702 62.3669 54.8635 62.5462C54.7459 62.7439 54.6849 62.9701 54.6871 63.2002C54.6738 63.4193 54.632 63.6356 54.5626 63.8438C54.4621 64.065 54.3368 64.274 54.189 64.4667C54.0354 64.6508 53.9254 64.8673 53.8673 65.1C53.9077 65.3141 54.0085 65.5123 54.1578 65.671C54.3459 65.9007 54.487 66.1653 54.5729 66.4496C54.5848 66.6086 54.5632 66.7684 54.5096 66.9186C54.456 67.0687 54.3715 67.206 54.2616 67.3216C54.1371 67.4773 54.0125 67.6538 54.0644 67.7472C54.1688 67.9858 54.2184 68.2448 54.2097 68.5051C54.1933 68.6857 54.2219 68.8676 54.2927 69.0345L54.9776 69.2629C55.9011 69.4979 56.7783 69.8875 57.5719 70.4152C57.8225 70.6528 57.9961 70.9602 58.07 71.2977C58.0967 71.4774 58.1847 71.6424 58.319 71.7648C58.5785 71.9621 58.8067 72.1489 59.0247 72.3358C59.3533 72.6144 59.7 72.871 60.0624 73.104C60.4776 73.3358 60.9074 73.5405 61.3491 73.7165C61.8265 73.9241 62.3246 74.1318 62.7915 74.3705C63.2585 74.6093 63.7566 74.8065 64.3481 75.0453C64.7839 75.2218 65.2509 75.4087 65.6867 75.6059C66.2528 75.82 66.7535 76.1777 67.1395 76.644C67.2269 76.7691 67.3317 76.8809 67.4508 76.9763C67.897 77.1424 68.4885 77.3292 69.2045 77.5368C69.9205 77.7445 70.3875 77.8898 70.979 78.0871L72.079 78.2739C73.3288 78.442 74.5663 78.6917 75.7836 79.0214C76.6138 79.2705 77.2467 79.5301 77.8071 79.7481C78.3674 79.9661 78.7099 80.101 79.1042 80.2049L80.474 80.5786C81.3664 80.8277 82.2069 81.0561 83.0682 81.2637C83.9933 81.4801 84.8991 81.7718 85.7767 82.1358C86.005 82.2188 86.3163 82.3434 86.5446 82.4161L87.4681 82.468C89.0709 82.5158 90.669 82.6684 92.2519 82.9248C93.307 83.1184 94.3472 83.3855 95.3651 83.7241C95.6867 83.8176 96.1641 83.9733 96.4028 84.0148C97.5312 84.2024 98.647 84.459 99.7441 84.783L100.637 85.0322H101.57C103.181 84.995 104.793 85.0609 106.396 85.2294C108.025 85.4163 109.633 85.5824 111.418 85.7589C112.508 85.8627 113.494 85.9977 114.355 86.1222C115.216 86.2468 115.87 86.3298 116.43 86.3714C116.991 86.4129 117.8 86.444 118.63 86.4648C119.461 86.4856 120.519 86.4648 121.609 86.579C123.04 86.678 124.464 86.8617 125.873 87.1292L126.911 87.3057C127.513 87.3057 128.26 87.3057 129.049 87.3057C129.838 87.3057 130.896 87.3057 131.944 87.3057H132.162L133.355 87.233C133.968 87.1811 134.673 87.1292 135.431 87.0981C135.908 87.0981 136.365 87.0981 136.811 87.0981C138.303 87.1146 139.792 87.2151 141.273 87.3991L142.311 87.5029L143.079 87.6587C144.294 87.3925 145.53 87.2362 146.773 87.1915C148.342 87.1526 149.912 87.2116 151.474 87.368L152.335 87.4406L152.864 87.2746C153.927 86.9449 155.024 86.7325 156.133 86.6413C156.517 86.6413 156.922 86.579 157.378 86.5686C158.24 86.5686 159.059 86.5686 159.796 86.5686H161.218C161.672 86.5018 162.122 86.4117 162.567 86.2987C163.354 86.1014 164.15 85.9455 164.953 85.8316C165.576 85.7485 166.292 85.6862 167.153 85.6551C167.807 85.6551 168.43 85.6551 168.99 85.6551H170.028H170.132C170.671 85.5616 171.169 85.4163 171.802 85.2709C172.435 85.1256 172.84 85.0114 173.38 84.8868C173.477 84.8124 173.567 84.729 173.649 84.6377C174.122 84.0883 174.772 83.7212 175.486 83.5995C176.854 83.3286 178.243 83.1827 179.637 83.1635H180.509C180.657 83.0741 180.796 82.9697 180.924 82.8521C181.329 82.4981 181.797 82.2234 182.304 82.0423C183.161 81.7744 184.04 81.5765 184.929 81.4506C185.251 81.4506 185.728 81.3157 185.967 81.2637C185.988 81.168 185.988 81.0688 185.967 80.9731C185.92 80.7494 185.955 80.5164 186.066 80.3164C186.176 80.1164 186.355 79.9627 186.569 79.883C187.007 79.6541 187.462 79.4564 187.928 79.2913C188.287 79.1709 188.635 79.018 188.966 78.8345C189.167 78.6702 189.336 78.4695 189.464 78.2428C189.605 78.0043 189.776 77.7845 189.972 77.5888L190.408 77.1839C190.702 76.9497 190.967 76.6813 191.197 76.3845C191.259 76.3015 191.197 76.1146 191.062 75.9485C190.964 75.8204 190.895 75.6719 190.861 75.5139C190.827 75.3559 190.828 75.1923 190.865 75.0349C191.021 74.6404 191.654 74.3394 192.162 74.111C192.34 74.0349 192.511 73.941 192.67 73.8307C192.66 73.5692 192.6 73.3121 192.494 73.0729C192.418 72.8882 192.359 72.6971 192.318 72.5019C192.224 72.2294 192.087 71.9736 191.913 71.744C191.782 71.5565 191.661 71.3625 191.55 71.1627C191.462 70.9677 191.389 70.7664 191.332 70.5606C191.269 70.2928 191.156 70.0393 191 69.8131C190.765 69.5849 190.504 69.3862 190.221 69.2214C189.858 68.9974 189.511 68.7476 189.184 68.4739C188.716 68.0541 188.224 67.6624 187.71 67.3008L187.492 67.1451C187.288 67.0382 187.131 66.8578 187.054 66.6402C186.977 66.4226 186.985 66.1838 187.077 65.972C187.091 65.8756 187.091 65.7777 187.077 65.6813C186.455 65.3076 185.687 64.9027 184.94 64.5186L184.825 64.4667L183.892 64.2695C182.634 64.0681 181.4 63.7412 180.208 63.2936C179.662 63.0541 179.16 62.7242 178.724 62.3178C178.575 62.1643 178.403 62.0348 178.215 61.9337C177.655 61.7053 177.178 61.4976 176.711 61.2796C176.244 61.0616 175.673 60.8332 175.227 60.6671C175.05 60.6152 174.345 60.4699 173.878 60.3868C172.954 60.2 171.802 59.982 170.765 59.6809C169.993 59.4502 169.246 59.1442 168.534 58.7673C168.295 58.6532 167.942 58.4767 167.745 58.404L166.562 58.2587C165.234 58.1239 163.914 57.916 162.608 57.6358C161.662 57.4118 160.738 57.1025 159.848 56.7118C159.588 56.608 159.215 56.4523 159.028 56.4004C157.233 56.0267 155.801 55.736 154.504 55.4972C153.539 55.3207 152.677 55.1235 151.92 54.947C151.328 54.8121 150.768 54.6875 150.28 54.594H149.305C147.633 54.6246 145.962 54.5344 144.303 54.3241L142.145 54.0127C141.2 53.8673 140.308 53.7324 139.457 53.6286C138.606 53.5248 137.548 53.369 136.738 53.2445C135.929 53.1199 135.161 53.0057 134.528 52.9434C133.106 52.8084 131.633 52.6943 130.076 52.5697L129.391 52.5074C128.561 52.4451 127.617 52.4036 126.631 52.3621L124.224 52.2375C123.725 52.2375 123.02 52.2375 122.273 52.2375C121.349 52.2375 120.301 52.2375 119.16 52.2375C117.229 52.1544 115.663 52.1129 114.096 52.0714C112.499 52.02 110.908 51.8605 109.333 51.5938L108.367 51.4485H107.828L106.52 51.5108L104.787 51.5938H103.75H102.504C101.207 51.5938 99.9621 51.5938 98.7999 51.6769L98.8206 51.5315Z" fill="url(#paint0_linear_228_15272)"/>
<path d="M80.0277 63.0655C79.3915 63.1495 78.7444 63.0672 78.1494 62.8267C77.8692 62.6294 78.2532 62.4218 79.0107 62.3595C79.6435 62.2815 80.2858 62.3635 80.8786 62.5983C81.1588 62.7955 80.7748 63.0032 80.0277 63.0655ZM73.5524 61.3941C72.7927 61.4889 72.0214 61.3889 71.311 61.1034C70.9685 60.8646 71.4251 60.6155 72.3487 60.5428C73.1084 60.4428 73.881 60.543 74.5901 60.8335C74.9325 61.0619 74.4656 61.311 73.5524 61.3941ZM73.7392 59.2555C69.5261 59.6085 66.4026 58.7364 65.4375 59.7538C65.3545 59.8265 65.2715 59.7538 65.2404 59.9407C64.9394 61.2383 65.2404 62.8474 66.0913 63.4184C68.6129 65.1625 76.1259 66.128 82.8813 65.5674C88.5887 65.1002 91.9197 63.6987 91.2971 62.2246C91.1829 61.9547 91.4424 61.3318 91.0481 61.0619C88.5264 59.3178 80.5154 58.7053 73.7599 59.2555H73.7392Z" fill="#952500"/>
<path d="M93.6216 52.1958H94.5659C95.6642 52.1202 96.7563 51.971 97.8347 51.7494C98.146 51.6871 98.613 51.5937 98.8724 51.573C100.035 51.573 101.28 51.5107 102.577 51.4899H103.822H104.86L106.593 51.4068L107.9 51.3446H108.44L109.405 51.4899C110.98 51.7566 112.571 51.9161 114.168 51.9674C115.735 51.9674 117.281 52.0505 119.232 52.1335C120.415 52.1854 121.463 52.1335 122.345 52.1335C123.092 52.1335 123.798 52.1335 124.296 52.1335L126.704 52.2581C127.741 52.2581 128.634 52.3412 129.464 52.4034L130.149 52.4658C131.705 52.5903 133.179 52.7045 134.601 52.8395C135.234 52.9018 136.001 53.016 136.811 53.1405C137.62 53.2651 138.533 53.4001 139.53 53.5246C140.526 53.6492 141.273 53.7634 142.217 53.9088L144.376 54.2202C146.034 54.4304 147.706 54.5207 149.377 54.4901H150.353C150.841 54.5835 151.391 54.7081 151.992 54.8431C152.75 55.0196 153.611 55.2168 154.576 55.3933C155.873 55.6321 157.305 55.9227 159.101 56.2965C159.287 56.3484 159.661 56.5041 159.92 56.6079C160.811 56.9986 161.735 57.3078 162.681 57.5318C163.986 57.812 165.306 58.02 166.634 58.1547L167.817 58.3001C168.015 58.3727 168.367 58.5492 168.606 58.6634C169.318 59.0403 170.065 59.3462 170.837 59.577C171.875 59.878 173.016 60.096 173.95 60.2829C174.417 60.366 175.123 60.5113 175.299 60.5632C175.787 60.7293 176.275 60.9473 176.783 61.1757C177.292 61.4041 177.727 61.6013 178.288 61.8297C178.476 61.9308 178.648 62.0604 178.796 62.2138C179.233 62.6203 179.734 62.9502 180.28 63.1897C181.472 63.6372 182.707 63.9642 183.964 64.1655L184.898 64.3628L185.012 64.4147C185.759 64.7988 186.527 65.2037 187.15 65.5774C187.163 65.6738 187.163 65.7717 187.15 65.8681C187.058 66.0799 187.05 66.3186 187.127 66.5363C187.204 66.7539 187.36 66.9343 187.565 67.0412L187.783 67.1969C188.297 67.5584 188.789 67.9502 189.256 68.37C189.584 68.6437 189.931 68.8935 190.294 69.1174C190.577 69.2822 190.838 69.481 191.072 69.7092C191.229 69.9354 191.341 70.1889 191.404 70.4566C191.462 70.6625 191.535 70.8638 191.622 71.0588C191.734 71.2585 191.855 71.4526 191.986 71.6401C192.16 71.8697 192.296 72.1255 192.39 72.398C192.432 72.5932 192.491 72.7843 192.567 72.9689C192.673 73.2082 192.732 73.4653 192.743 73.7268C192.583 73.8371 192.413 73.931 192.235 74.0071C191.726 74.2355 191.093 74.5365 190.937 74.931C190.901 75.0884 190.899 75.252 190.933 75.41C190.967 75.568 191.036 75.7164 191.135 75.8446C191.228 76.0107 191.332 76.1975 191.27 76.2806C191.039 76.5774 190.774 76.8457 190.481 77.0799L190.045 77.4848C189.849 77.6806 189.678 77.9003 189.537 78.1388C189.409 78.3656 189.24 78.5663 189.038 78.7306C188.707 78.9141 188.36 79.067 188.001 79.1874C187.534 79.3525 187.08 79.5502 186.641 79.7791C186.427 79.8587 186.249 80.0125 186.138 80.2125C186.028 80.4125 185.993 80.6455 186.039 80.8691C186.061 80.9649 186.061 81.0641 186.039 81.1598C185.842 81.1598 185.365 81.2948 185.002 81.3467C184.112 81.4725 183.234 81.6704 182.376 81.9384C181.87 82.1195 181.402 82.3942 180.996 82.7482C180.869 82.8658 180.73 82.9702 180.581 83.0596H179.709C178.316 83.0788 176.926 83.2247 175.559 83.4956C174.844 83.6173 174.195 83.9844 173.722 84.5338C173.64 84.6251 173.55 84.7085 173.452 84.7829C172.881 84.9075 172.414 85.0424 171.875 85.167C171.335 85.2916 170.744 85.4577 170.204 85.5511H170.059H169.021C168.461 85.5511 167.838 85.5511 167.184 85.5511C166.323 85.5511 165.607 85.6446 164.984 85.7276C164.181 85.8415 163.385 85.9975 162.598 86.1948C162.153 86.3078 161.703 86.3979 161.249 86.4647H159.827C159.09 86.4647 158.271 86.4647 157.409 86.4647C156.953 86.4647 156.548 86.4647 156.164 86.5374C155.055 86.6286 153.958 86.8409 152.895 87.1706L152.366 87.3367L151.505 87.264C149.943 87.1077 148.373 87.0487 146.804 87.0876C145.547 87.1645 144.3 87.3556 143.079 87.6585L142.373 87.7831L141.335 87.6793C139.855 87.4953 138.365 87.3948 136.873 87.3782C136.427 87.3782 135.97 87.3782 135.493 87.3782C134.704 87.3782 133.999 87.4613 133.418 87.5132L132.224 87.5859H132.006C130.969 87.5859 129.931 87.5859 129.111 87.5859C128.291 87.5859 127.575 87.5859 126.973 87.5859L125.936 87.4094C124.526 87.1419 123.102 86.9581 121.671 86.8592C120.581 86.7969 119.595 86.7657 118.693 86.745C117.79 86.7242 117.084 86.745 116.493 86.6516C115.901 86.5581 115.185 86.5062 114.417 86.4024C113.649 86.2986 112.57 86.1429 111.48 86.0391C109.696 85.8626 108.087 85.6965 106.458 85.5096C104.855 85.3411 103.244 85.2752 101.633 85.3124H100.709L99.8167 85.0632C98.7196 84.7391 97.6038 84.4826 96.4753 84.295C96.2678 84.295 95.7904 84.0977 95.4376 84.0043C94.4198 83.6656 93.3796 83.3985 92.3245 83.205C90.7416 82.9485 89.1435 82.796 87.5406 82.7482L86.6171 82.6963C86.3888 82.6236 86.0775 82.499 85.8492 82.416C84.9716 82.0519 84.0658 81.7603 83.1408 81.5439C82.2795 81.3363 81.439 81.1079 80.5465 80.8588L79.1768 80.485C78.7824 80.3812 78.3466 80.2047 77.8796 80.0282C77.4127 79.8518 76.6863 79.5507 75.8561 79.3015C74.6388 78.9719 73.4014 78.7222 72.1516 78.5541L71.0516 78.3672C70.4601 78.17 69.8582 77.9935 69.2771 77.817C68.696 77.6405 67.9696 77.4225 67.5234 77.2564C67.4043 77.1611 67.2995 77.0493 67.2121 76.9242C66.8261 76.4579 66.3254 76.1001 65.7593 75.8861C65.3234 75.6888 64.8565 75.502 64.4206 75.3255C63.8292 75.0867 63.2792 74.8687 62.8641 74.6507C62.449 74.4327 61.899 74.2043 61.4217 73.9967C60.9799 73.8206 60.5501 73.616 60.1349 73.3842C59.7725 73.1512 59.4259 72.8946 59.0972 72.616C58.8793 72.4291 58.651 72.2422 58.3916 72.045C58.2573 71.9226 58.1693 71.7576 58.1426 71.5778C58.0687 71.2404 57.8951 70.933 57.6444 70.6954C56.8508 70.1677 55.9737 69.778 55.0502 69.5431L54.3653 69.3147C54.2944 69.1477 54.2659 68.9659 54.2823 68.7852C54.291 68.525 54.2414 68.266 54.137 68.0274C54.137 67.934 54.2096 67.7575 54.3341 67.6018C54.444 67.4862 54.5285 67.3489 54.5821 67.1987C54.6357 67.0485 54.6574 66.8888 54.6455 66.7297C54.5595 66.4455 54.4185 66.1809 54.2304 65.9511C54.0811 65.7924 53.9802 65.5943 53.9398 65.3801C53.9979 65.1475 54.1079 64.931 54.2615 64.7469C54.4093 64.5541 54.5346 64.3452 54.6351 64.124C54.7045 63.9158 54.7464 63.6994 54.7596 63.4804C54.7575 63.2503 54.8185 63.0241 54.936 62.8263C55.1427 62.6471 55.3776 62.5032 55.6313 62.4007C56.0396 62.2198 56.4205 61.9822 56.7624 61.6948C57.04 61.4691 57.3389 61.2709 57.6548 61.103C57.9454 60.9369 58.2463 60.7605 58.5161 60.5736C58.797 60.3682 59.0189 60.0925 59.1595 59.7742C59.2245 59.5934 59.3442 59.4374 59.5019 59.3278C59.8379 59.1854 60.1849 59.0708 60.5396 58.9852C61.1564 58.8367 61.7602 58.6388 62.3452 58.3935C62.789 58.2226 63.1571 57.8986 63.3829 57.4799C63.4437 57.3542 63.5325 57.2441 63.6424 57.1581C64.3895 56.8778 65.2508 56.6183 66.164 56.3484L66.5479 56.2342C66.9838 56.0992 67.5856 55.9746 68.2498 55.8397C68.9139 55.7047 69.4224 55.5905 70.0139 55.4452C70.844 55.2376 71.7779 55.0507 72.7534 54.8431L73.5213 54.6874C74.1889 54.5435 74.8473 54.3598 75.4929 54.1371C75.887 54.002 76.2891 53.8911 76.6967 53.8049C77.2882 53.7011 78.0561 53.6181 78.8655 53.5246C79.6749 53.4312 80.2145 53.3689 80.9409 53.2651H81.2833H82.321C82.7984 53.2651 83.3587 53.2651 83.8983 53.2651C84.6454 53.2651 85.2992 53.1924 85.87 53.1302C86.7752 53.0292 87.673 52.8697 88.5576 52.6526C88.952 52.5696 89.4397 52.4554 89.6991 52.4346H90.2802C90.6849 52.4346 91.1623 52.4346 91.6604 52.4346C92.1585 52.4346 92.9471 52.4346 93.6423 52.4346L93.6216 52.1958ZM97.4196 50.4933C95.6866 50.5556 94.5763 51.0227 92.9263 51.1162H92.2622C91.1623 51.1162 89.9896 51.1162 88.9 51.1888L87.769 51.2615C86.1502 51.3965 85.2058 51.8117 83.6804 51.9778C83.3276 51.9778 82.9333 52.0401 82.5078 52.0609C81.6776 52.0609 80.7645 52.0609 79.9343 52.1232C79.4259 52.1232 78.8966 52.1751 78.5334 52.227C77.0806 52.4346 75.4203 52.5696 74.0817 52.7979C72.743 53.0263 71.9544 53.4624 70.6884 53.7323C69.4224 54.0022 68.146 54.241 66.9734 54.5316C65.8008 54.8223 64.3792 55.0507 63.3311 55.3725C62.283 55.6943 61.1934 56.0058 60.218 56.3588C59.2425 56.7117 59.5953 57.2827 58.7652 57.646C57.935 58.0094 56.4822 58.2585 55.7766 58.6842C55.0709 59.1098 55.2681 59.577 54.687 59.9818C54.0561 60.3449 53.4463 60.7435 52.8606 61.1757C52.4144 61.6013 51.2729 61.9439 50.9616 62.3799C50.6503 62.816 50.7956 63.2935 50.6192 63.7503C50.4428 64.2071 49.955 64.6223 49.9135 65.0895C49.872 65.5566 50.5258 66.0342 50.6192 66.5117C50.7126 66.9893 49.9032 67.4045 50.1418 67.8821C50.3805 68.3596 50.1418 68.8371 50.4635 69.3147C50.7852 69.7922 53.2653 70.2386 53.7634 70.7162C54.2615 71.1937 53.971 71.6713 54.6143 72.1488C55.2043 72.6489 55.821 73.1168 56.4615 73.5503C57.2294 74.0278 58.4538 74.4431 59.3255 74.8999C60.1972 75.3566 61.4009 75.7719 62.3763 76.2079C63.3518 76.6439 63.165 77.246 64.265 77.6821C65.3649 78.1181 66.8904 78.4918 68.1045 78.9071C69.3186 79.3223 71.7365 79.4988 73.0543 79.8933C74.3722 80.2878 75.2024 80.7653 76.6033 81.1391C78.0042 81.5128 79.322 81.8969 80.806 82.2499C82.2899 82.6028 83.12 83.1842 84.687 83.506C86.2539 83.8278 88.8378 83.724 90.5085 84.0251C92.1792 84.3261 93.1961 84.8867 94.8772 85.1566C96.5583 85.4266 97.8243 86.0079 99.5677 86.2467C101.311 86.4855 103.718 86.2467 105.451 86.4439C107.184 86.6412 108.969 86.828 110.785 87.0045C112.601 87.181 114.272 87.5028 116.098 87.6482C117.925 87.7935 119.741 87.7624 121.577 87.8766C123.414 87.9908 125.272 88.5306 127.098 88.6136C128.924 88.6967 130.74 88.6136 132.567 88.6136C132.94 88.6136 133.303 88.6136 133.667 88.6136C134.777 88.6136 135.846 88.4475 136.966 88.3956H137.766C139.55 88.3956 141.771 88.8524 143.535 88.8213H143.732C145.372 88.759 146.524 88.271 148.194 88.1984C149.865 88.1257 152.221 88.5306 153.871 88.4683H154.037C155.718 88.3749 156.506 87.7624 158.094 87.6274H158.789C159.962 87.6274 161.332 87.6274 162.494 87.6274C162.826 87.6274 163.148 87.6274 163.438 87.5651C164.974 87.3886 165.97 86.9941 167.423 86.7969C167.755 86.745 168.149 86.7242 168.565 86.7035C169.488 86.7035 170.557 86.7035 171.47 86.6516C171.908 86.6401 172.344 86.602 172.778 86.5374C174.147 86.2986 175.237 85.9456 176.503 85.6757C177.769 85.4058 177.478 84.7102 178.641 84.4196C179.803 84.1289 182.719 84.2638 183.829 83.942C184.94 83.6202 184.96 83.0596 185.905 82.717C186.849 82.3744 188.904 82.2291 189.734 81.8554C190.564 81.4816 189.734 80.8172 190.419 80.4331C191.103 80.049 192.318 79.7272 192.888 79.3223C193.459 78.9174 193.532 78.4295 193.926 78.0039C194.393 77.6154 194.827 77.1883 195.223 76.727C195.534 76.2806 194.756 75.7615 194.933 75.3047C195.109 74.848 196.717 74.5054 196.759 74.0382C196.697 73.5533 196.571 73.0786 196.385 72.6263C196.177 72.1206 195.913 71.64 195.597 71.1937C195.457 70.6962 195.254 70.2183 194.995 69.7715C194.621 69.3043 193.656 68.8268 193.148 68.3492C192.639 67.8717 192.006 67.4149 191.363 66.9373C190.72 66.4598 191.695 65.8992 190.948 65.4424C190.201 64.9857 189.236 64.4977 188.354 64.041C187.471 63.5842 184.711 63.3039 183.715 62.8679C182.719 62.4318 182.677 61.8297 181.557 61.4249C180.436 61.02 179.575 60.5113 178.36 60.096C177.146 59.6808 175.009 59.4316 173.701 59.0579C172.394 58.6842 171.813 58.0924 170.412 57.7083C169.011 57.3242 166.562 57.2412 165.078 56.8882C163.594 56.5352 162.847 55.9331 161.29 55.6113C159.734 55.2895 158.084 54.9469 156.455 54.6458C154.825 54.3448 153.341 53.9191 151.66 53.6077C149.979 53.2962 147.437 53.6077 145.694 53.3378C143.95 53.0679 142.342 52.8083 140.567 52.6007C138.793 52.3931 137.143 52.0609 135.379 51.8844C133.615 51.7079 131.768 51.573 129.941 51.4276C128.115 51.2823 126.299 51.2407 124.462 51.1265C122.625 51.0124 120.892 51.1265 119.056 51.0435C117.219 50.9604 115.517 50.9085 113.691 50.867C111.864 50.8255 109.727 50.2441 107.932 50.2441C107.465 50.2441 106.998 50.2441 106.551 50.2441C105.514 50.2441 104.476 50.3583 103.511 50.3999H102.712C100.969 50.3999 99.1526 50.3999 97.43 50.5141L97.4196 50.4933Z" fill="#E58848"/>
<path d="M73.6562 57.4489C66.9111 57.7188 63.4659 59.4317 65.9564 61.2796C68.4469 63.1275 75.9495 64.394 82.6946 64.1656C89.4397 63.9372 92.8848 62.1932 90.3943 60.3349C87.9038 58.4766 80.4012 57.2205 73.6562 57.4489Z" fill="#B12600"/>
<path d="M72.2346 58.674C71.3318 58.674 70.8648 58.9438 71.1969 59.1929C71.8997 59.5078 72.6708 59.6399 73.4383 59.5768C74.3411 59.5768 74.8081 59.3174 74.476 59.0683C73.7703 58.7502 72.996 58.6146 72.2242 58.674H72.2346Z" fill="#F4BDC6"/>
<path d="M78.9277 60.7919C78.1806 60.7919 77.7966 61.0098 78.0768 61.2173C78.6614 61.4834 79.3047 61.5942 79.9447 61.539C80.6918 61.539 81.0862 61.3211 80.806 61.1136C80.2175 60.848 79.571 60.7373 78.9277 60.7919Z" fill="#F4BDC6"/>
<path d="M86.4823 61.8504C85.9946 61.8504 85.7455 61.9853 85.9219 62.1202C86.3027 62.291 86.7196 62.3658 87.136 62.3381C87.6238 62.3381 87.8832 62.1928 87.6964 62.0579C87.316 61.8864 86.8981 61.815 86.4823 61.8504Z" fill="#E2A4AC"/>
<path d="M72.826 61.2793C71.7883 61.2793 71.2384 61.5906 71.6223 61.8811C72.4459 62.2492 73.3482 62.4061 74.2477 62.3377C75.2854 62.3377 75.8354 62.0264 75.4515 61.7359C74.6279 61.3679 73.7255 61.2109 72.826 61.2793Z" fill="#F4BDC6"/>
<path d="M87.2708 67.56C86.15 67.56 85.5793 67.8817 85.9944 68.193C86.8635 68.5815 87.8161 68.7457 88.7651 68.6704C89.8754 68.6704 90.4462 68.3383 90.0311 68.0374C89.1669 67.6449 88.2165 67.4806 87.2708 67.56Z" fill="#E23D1C"/>
<path d="M106.759 73.3011C105.545 73.3011 104.933 73.654 105.368 73.986C106.309 74.4074 107.34 74.5858 108.367 74.5049C109.581 74.453 110.194 74.1521 109.748 73.82C108.813 73.3925 107.783 73.2138 106.759 73.3011Z" fill="#E23D1C"/>
<path d="M121.339 72.0865C120.228 72.0865 119.658 72.4082 120.073 72.7091C120.933 73.1021 121.88 73.2665 122.823 73.1865C123.933 73.1865 124.504 72.8648 124.089 72.5535C123.226 72.1698 122.28 72.0093 121.339 72.0865Z" fill="#E23D1C"/>
<path d="M134.891 73.1245C133.791 73.1245 133.22 73.4462 133.625 73.7575C134.49 74.1459 135.441 74.3067 136.385 74.2244C137.485 74.2244 138.056 73.9028 137.641 73.6018C136.78 73.2129 135.833 73.0486 134.891 73.1245Z" fill="#E23D1C"/>
<path d="M142.383 76.2392C141.273 76.2911 140.713 76.5713 141.117 76.8722C141.98 77.259 142.925 77.4231 143.867 77.3496C144.978 77.3496 145.548 77.0175 145.133 76.7166C144.272 76.3276 143.326 76.1634 142.383 76.2392Z" fill="#E23D1C"/>
<path d="M90.6123 55.7568C89.5019 55.7568 88.9312 56.0785 89.3463 56.3794C90.2063 56.7732 91.1537 56.9377 92.0962 56.8568C93.2065 56.8568 93.7773 56.5351 93.3622 56.2238C92.4995 55.8393 91.5536 55.6786 90.6123 55.7568Z" fill="#E23D1C"/>
<path d="M134.777 69.2835C132.702 69.3561 131.664 69.8854 132.421 70.4457C133.179 71.0061 135.472 71.4004 137.527 71.3278C139.582 71.2551 140.64 70.7259 139.872 70.1552C139.104 69.5844 136.832 69.2005 134.777 69.2835Z" fill="#E23D1C"/>
<path d="M145.455 67.529C144.189 67.529 143.535 67.9025 144.002 68.2554C144.978 68.6946 146.049 68.8802 147.115 68.795C148.392 68.795 149.045 68.4214 148.568 68.0789C147.593 67.6379 146.522 67.4487 145.455 67.529Z" fill="#E23D1C"/>
<path d="M112.248 61.9853C110.65 62.0476 109.831 62.4523 110.422 62.8985C111.665 63.4545 113.029 63.6865 114.386 63.573C115.984 63.5107 116.804 63.106 116.212 62.6702C114.97 62.1098 113.606 61.8741 112.248 61.9853Z" fill="#E23D1C"/>
<path d="M124.649 60.5738C123.092 60.6361 122.304 61.0304 122.875 61.4558C124.082 61.9953 125.406 62.2236 126.724 62.12C128.271 62.0577 129.07 61.6634 128.489 61.2379C127.286 60.6924 125.965 60.4637 124.649 60.5738Z" fill="#E23D1C"/>
<path d="M95.0744 64.9753C93.2792 65.0479 92.366 65.5045 92.999 66.013C94.3922 66.6474 95.9255 66.9119 97.4508 66.7809C99.246 66.7083 100.159 66.2517 99.5262 65.7432C98.133 65.1088 96.5997 64.8443 95.0744 64.9753Z" fill="#E23D1C"/>
<path d="M72.9713 65.0376C71.9336 65.0376 71.4874 65.3281 71.8506 65.5979C72.6107 65.9431 73.4472 66.0861 74.2788 66.013C75.2543 66.013 75.7628 65.7328 75.3996 65.463C74.6386 65.12 73.8036 64.9737 72.9713 65.0376Z" fill="#E23D1C"/>
<path d="M63.6112 65.7124C62.999 65.7124 62.6773 65.8992 62.9056 66.0652C63.3874 66.2806 63.915 66.3733 64.4414 66.335C65.064 66.335 65.3857 66.1482 65.1574 65.9822C64.6735 65.7617 64.1412 65.6688 63.6112 65.7124Z" fill="#E23D1C"/>
<path d="M65.3027 69.6471C64.6801 69.6471 64.3688 69.8235 64.5971 69.9999C65.0788 70.2151 65.6072 70.3044 66.1329 70.2593C66.7555 70.2593 67.0669 70.0829 66.8386 69.9065C66.356 69.6943 65.8282 69.6051 65.3027 69.6471Z" fill="#E23D1C"/>
<path d="M80.972 56.3484C80.3494 56.3484 80.0381 56.5248 80.256 56.7012C80.7408 56.9182 81.2731 57.0075 81.8021 56.9606C82.4144 56.9606 82.7361 56.7842 82.5078 56.6182C82.027 56.3994 81.4985 56.3066 80.972 56.3484Z" fill="#E23D1C"/>
<path d="M121.66 56.6496C121.038 56.6496 120.726 56.8363 120.955 57.0024C121.436 57.219 121.964 57.3117 122.491 57.2722C123.113 57.2722 123.425 57.0854 123.196 56.9194C122.716 56.6979 122.187 56.6049 121.66 56.6496Z" fill="#E23D1C"/>
<path d="M147.229 57.0959C146.607 57.0959 146.285 57.2723 146.513 57.4487C146.998 57.6657 147.53 57.755 148.06 57.7082C148.672 57.7082 148.983 57.5318 148.755 57.3554C148.276 57.144 147.751 57.0549 147.229 57.0959Z" fill="#E23D1C"/>
<path d="M174.926 71.5468C174.303 71.5468 173.992 71.7336 174.22 71.8996C174.7 72.1211 175.229 72.214 175.756 72.1694C176.378 72.1694 176.69 71.9826 176.461 71.8166C175.982 71.5951 175.452 71.5022 174.926 71.5468Z" fill="#E23D1C"/>
<path d="M161.913 83.0698C161.29 83.0698 160.969 83.2462 161.197 83.4226C161.682 83.6396 162.214 83.7289 162.743 83.6821C163.355 83.6821 163.677 83.5057 163.449 83.3396C162.968 83.1209 162.439 83.028 161.913 83.0698Z" fill="#E23D1C"/>
<path d="M123.954 84.3885C123.331 84.3885 123.02 84.5649 123.248 84.7413C123.731 84.9535 124.258 85.0427 124.784 85.0008C125.407 85.0008 125.718 84.8243 125.49 84.6479C125.007 84.4357 124.479 84.3466 123.954 84.3885Z" fill="#E23D1C"/>
<path d="M81.5532 76.4469C80.9306 76.4469 80.6193 76.6233 80.8476 76.7997C81.3293 77.0149 81.8577 77.1042 82.3834 77.0591C83.006 77.0591 83.3173 76.8827 83.089 76.7063C82.6064 76.4941 82.0787 76.4049 81.5532 76.4469Z" fill="#E23D1C"/>
<path d="M71.7157 71.9828C70.5742 71.9828 69.9931 72.3252 70.4185 72.6366C71.307 73.0342 72.2812 73.202 73.2515 73.1243C74.393 73.0724 74.9741 72.7818 74.5486 72.4705C73.6609 72.0707 72.686 71.9028 71.7157 71.9828Z" fill="#E23D1C"/>
<path d="M92.8641 70.6225C91.7226 70.6225 91.1415 70.965 91.5566 71.2763C92.4484 71.6748 93.4262 71.8426 94.3999 71.764C95.5414 71.764 96.1225 71.432 95.697 71.1206C94.8114 70.7132 93.8355 70.5416 92.8641 70.6225Z" fill="#E23D1C"/>
<path d="M118.962 82.0733C117.79 82.0733 117.188 82.4157 117.624 82.7374C118.537 83.1504 119.541 83.3219 120.54 83.2355C121.712 83.2355 122.314 82.8931 121.878 82.5714C120.965 82.1584 119.961 81.9869 118.962 82.0733Z" fill="#E23D1C"/>
<path d="M159.848 78.8656C158.603 78.8656 157.97 79.2288 158.437 79.5712C159.413 80.0065 160.484 80.1885 161.55 80.1004C162.785 80.0486 163.428 79.7372 162.961 79.3948C161.987 78.9501 160.914 78.7677 159.848 78.8656Z" fill="#E23D1C"/>
<path d="M172.778 72.4394C171.356 72.5017 170.63 72.8649 171.148 73.2488C172.253 73.7502 173.468 73.9576 174.677 73.8507C176.098 73.8507 176.825 73.4356 176.295 73.0516C175.194 72.5516 173.983 72.3409 172.778 72.4394Z" fill="#E23D1C"/>
<path d="M180.778 69.9376C178.558 70.0207 177.427 70.5914 178.246 71.2036C179.066 71.8159 181.536 72.2413 183.746 72.148C185.956 72.0546 187.098 71.4942 186.278 70.8923C185.458 70.2905 182.999 69.8546 180.778 69.9376Z" fill="#E23D1C"/>
<path d="M91.1934 79.8413C90.7935 79.8881 90.3895 79.8881 89.9897 79.8413C89.1491 79.7375 88.7651 79.478 89.118 79.2807C89.4117 79.1481 89.7297 79.0774 90.0519 79.0731C90.4558 79.037 90.8621 79.037 91.266 79.0731C92.1066 79.1873 92.4905 79.4365 92.1377 79.6441C91.8396 79.7735 91.5183 79.8406 91.1934 79.8413ZM95.4479 77.7132C95.1032 77.7543 94.7549 77.7543 94.4102 77.7132C93.6942 77.6197 93.3726 77.4017 93.6631 77.2252C93.9191 77.1162 94.1943 77.0597 94.4725 77.0591C94.8172 77.018 95.1655 77.018 95.5102 77.0591C96.2262 77.1526 96.5479 77.3706 96.2574 77.5471C96.0003 77.6526 95.7257 77.7089 95.4479 77.7132ZM91.4216 76.3428C88.817 76.5089 85.9945 76.5401 84.8219 77.2045C84.469 77.4121 84.8219 78.0454 84.6973 78.2426C84.2096 79.0731 85.3096 79.4676 87.6341 80.1112C88.7129 80.5874 89.8308 80.9695 90.9754 81.2532C91.7848 81.3674 92.6254 81.0248 93.4556 81.0767C95.2016 81.3346 96.9624 81.4802 98.7271 81.5127C100.791 81.4775 102.828 81.0403 104.725 80.2254C105.275 79.9036 105.545 79.5714 105.566 79.2392C105.566 79.0731 105.68 78.6682 105.566 78.5021C104.964 77.6301 102.556 77.0384 99.1733 76.5816C96.6036 76.2469 94.0075 76.1635 91.4216 76.3324V76.3428Z" fill="#952500"/>
<path d="M91.6811 75.4502C89.6266 75.4146 87.5862 75.796 85.6832 76.5714C83.4106 77.7964 85.8804 79.4989 91.2038 80.371C93.7629 80.7787 96.3552 80.9387 98.945 80.8485C100.999 80.8743 103.037 80.4933 104.943 79.7273C107.216 78.492 104.746 76.7998 99.4224 75.9278C96.8639 75.5145 94.2709 75.3545 91.6811 75.4502Z" fill="#B12600"/>
<path d="M94.5867 76.2391C94.3088 76.2318 94.0326 76.2849 93.7773 76.3948C93.4763 76.5504 93.7773 76.7891 94.5141 76.9033C94.8575 76.9538 95.2047 76.9746 95.5518 76.9655C95.8258 76.9669 96.0973 76.914 96.3508 76.8099C96.6517 76.6542 96.3508 76.4259 95.614 76.3014C95.2706 76.2503 94.9234 76.2294 94.5763 76.2391H94.5867Z" fill="#E2A4AC"/>
<path d="M98.945 79.2287C98.7151 79.2352 98.4876 79.2772 98.2706 79.3532C98.0215 79.4985 98.2705 79.6853 98.8931 79.7787C99.1778 79.8248 99.4661 79.8457 99.7545 79.841C99.9861 79.8424 100.216 79.7965 100.429 79.7061C100.678 79.5712 100.429 79.3844 99.8063 79.291C99.5223 79.2397 99.2335 79.2188 98.945 79.2287Z" fill="#F4BDC6"/>
<path d="M90.1557 78.0973C89.8358 78.0941 89.5184 78.154 89.2217 78.2738C88.8689 78.4606 89.2218 78.7304 90.0831 78.8653C90.4843 78.9302 90.891 78.9545 91.2971 78.9379C91.6175 78.9462 91.9359 78.8861 92.2311 78.7615C92.5839 78.5747 92.2311 78.3049 91.3698 78.17C90.968 78.1099 90.5618 78.0856 90.1557 78.0973Z" fill="#F4BDC6"/>
<path d="M144.49 61.0096C144.143 61.0199 143.795 60.9991 143.452 60.9473C142.757 60.8227 142.414 60.5944 142.726 60.4283C142.978 60.3321 143.245 60.2828 143.514 60.2829C143.861 60.2726 144.209 60.2935 144.552 60.3452C145.247 60.4698 145.59 60.6982 145.278 60.8643C145.028 60.9654 144.76 61.0148 144.49 61.0096ZM134.85 60.0338H134.383C134.051 59.9715 133.905 59.8677 134.04 59.795C134.155 59.7475 134.279 59.7228 134.403 59.7223C134.562 59.712 134.722 59.712 134.881 59.7223C135.202 59.7223 135.358 59.8884 135.213 59.9611C135.098 60.0111 134.974 60.0358 134.85 60.0338ZM139.374 59.359C139.082 59.3724 138.79 59.355 138.502 59.3071C137.9 59.2032 137.62 59.006 137.88 58.871C138.094 58.785 138.323 58.7426 138.554 58.7465C138.847 58.716 139.143 58.716 139.436 58.7465C140.028 58.8503 140.308 59.0475 140.048 59.1825C139.834 59.2686 139.605 59.3109 139.374 59.3071V59.359ZM135.96 58.0821C134.236 58.0565 132.524 58.3777 130.927 59.0268C130.761 59.1098 130.47 58.5907 130.367 58.6738C130.268 58.8663 130.218 59.0803 130.221 59.2967C130.107 60.2206 130.491 60.0026 131.591 60.5321C132.804 61.3367 134.144 61.93 135.555 62.2865C136.188 62.4007 137.101 62.0893 137.755 62.1515C139.225 62.3268 140.706 62.3962 142.186 62.3592C144.365 62.2761 146.15 62.2969 147.146 61.7571C147.676 61.4664 148.184 61.103 148.122 60.7812C148.06 60.4594 148.122 59.9403 147.904 59.7431C147.209 59.0579 145.081 58.9022 142.518 58.4766C140.351 58.1197 138.154 57.9806 135.96 58.0613V58.0821Z" fill="#952500"/>
<path d="M136.064 57.2205C134.34 57.1949 132.628 57.5161 131.031 58.1652C129.101 59.2033 131.176 60.6775 135.659 61.4249C137.822 61.7851 140.015 61.9277 142.207 61.8506C143.935 61.8734 145.65 61.5486 147.25 60.8955C149.17 59.8574 147.105 58.3936 142.622 57.6357C140.455 57.2789 138.258 57.1398 136.064 57.2205Z" fill="#B12600"/>
<path d="M138.658 57.8849C138.427 57.8799 138.197 57.9223 137.983 58.0094C137.724 58.1547 137.983 58.3415 138.596 58.4452C138.887 58.4966 139.182 58.5174 139.478 58.5075C139.709 58.5089 139.939 58.463 140.152 58.3726C140.412 58.2377 140.152 58.0405 139.54 57.9368C139.248 57.8944 138.953 57.8771 138.658 57.8849Z" fill="#F4BDC6"/>
<path d="M141.678 60.9681C141.554 60.967 141.431 60.9881 141.314 61.0304C141.169 61.1134 141.314 61.2172 141.646 61.2691C141.805 61.2894 141.965 61.2894 142.124 61.2691C142.248 61.2721 142.371 61.2509 142.487 61.2068C142.632 61.1238 142.487 61.02 142.155 60.9681C141.996 60.9475 141.836 60.9475 141.678 60.9681Z" fill="#F4BDC6"/>
<path d="M134.507 58.8295C134.383 58.83 134.259 58.8547 134.144 58.9022C133.999 58.9748 134.144 59.0786 134.476 59.1408H134.953C135.078 59.1429 135.202 59.1181 135.317 59.0682C135.462 58.9956 135.317 58.8918 134.985 58.8295C134.826 58.8195 134.666 58.8195 134.507 58.8295Z" fill="#F4BDC6"/>
<path d="M143.629 59.4214C143.358 59.424 143.091 59.4767 142.84 59.5771C142.539 59.7327 142.84 59.961 143.566 60.0856C143.91 60.1373 144.257 60.1581 144.604 60.1478C144.871 60.1543 145.136 60.1048 145.382 60.0025C145.694 59.8365 145.382 59.6082 144.666 59.4941C144.324 59.4338 143.976 59.4094 143.629 59.4214Z" fill="#F4BDC6"/>
<path d="M79.9551 71.1834C79.7409 71.1985 79.526 71.1985 79.3118 71.1834C78.8863 71.1107 78.6788 70.9653 78.8656 70.8615C79.0206 70.7993 79.1862 70.7675 79.3533 70.7681C79.5673 70.7478 79.7827 70.7478 79.9967 70.7681C80.4221 70.8408 80.6297 70.9861 80.4429 71.0899C80.2875 71.151 80.1221 71.1827 79.9551 71.1834ZM73.1582 70.9861C72.8594 70.9953 72.5604 70.9744 72.2658 70.9238C71.6639 70.82 71.3837 70.6228 71.6431 70.4878C71.8586 70.3925 72.0926 70.3464 72.328 70.3528C72.6269 70.3433 72.9259 70.3642 73.2204 70.4151C73.8223 70.5189 74.1025 70.7162 73.8431 70.8511C73.628 70.9474 73.3938 70.9936 73.1582 70.9861ZM77.0185 69.948C76.7666 69.9735 76.5128 69.9735 76.2609 69.948C75.7317 69.8545 75.5034 69.6884 75.7213 69.5639C75.9055 69.4874 76.1031 69.4486 76.3025 69.4497C76.5595 69.4414 76.8167 69.4588 77.0703 69.5016C77.5892 69.5846 77.8279 69.7611 77.5996 69.8857C77.4159 69.9628 77.2175 69.9982 77.0185 69.9895V69.948ZM74.061 68.8268C72.5639 68.8089 71.0785 69.0913 69.6923 69.6573C69.4951 69.7715 69.2357 69.0967 69.1319 69.2109C68.364 70.0829 70.2734 71.9308 73.6874 72.5018C75.576 72.8236 77.6307 72.1488 79.4156 72.0762C81.2004 72.0035 82.9023 72.0761 83.7635 71.6505C84.0268 71.5052 84.2292 71.2702 84.3339 70.9882C84.4386 70.7063 84.4388 70.3961 84.3343 70.1141C83.9192 69.4497 82.2588 69.6158 79.7476 69.2005C77.8691 68.888 75.9642 68.7628 74.061 68.8268Z" fill="#952500"/>
<path d="M74.0505 67.6849C72.5529 67.6607 71.0662 67.9433 69.6818 68.5154C68.0111 69.429 69.796 70.7059 73.677 71.3599C75.5555 71.6724 77.4603 71.7976 79.3636 71.7336C80.8606 71.7515 82.3461 71.4691 83.7323 70.9031C85.403 69.9896 83.6078 68.7127 79.7372 68.0483C77.8577 67.7446 75.9533 67.6229 74.0505 67.6849Z" fill="#B12600"/>
<path d="M76.292 68.266C76.0926 68.2649 75.895 68.3037 75.7109 68.3802C75.4826 68.5047 75.7109 68.6707 76.2401 68.7537C76.4896 68.8019 76.744 68.8193 76.9976 68.8056C77.1997 68.81 77.4006 68.7748 77.5891 68.7019C77.8174 68.5773 77.5891 68.4009 77.0599 68.3179C76.8062 68.2755 76.5491 68.2581 76.292 68.266Z" fill="#E2A4AC"/>
<path d="M79.3428 69.5948C79.1758 69.5942 79.0101 69.6259 78.8551 69.6881C78.6683 69.7919 78.8551 69.9268 79.3013 69.9995C79.5115 70.0249 79.7241 70.0249 79.9343 69.9995C80.1023 70.0114 80.2704 69.9792 80.422 69.9061C80.6088 69.8127 80.422 69.6674 79.9758 69.5948C79.7656 69.5693 79.5531 69.5693 79.3428 69.5948Z" fill="#F4BDC6"/>
<path d="M78.907 70.9549C78.797 70.9572 78.6882 70.9783 78.5853 71.0172C78.4608 71.0898 78.5853 71.1832 78.8759 71.2247C79.0141 71.235 79.1528 71.235 79.291 71.2247C79.3975 71.2215 79.5027 71.2005 79.6023 71.1625C79.7268 71.0898 79.6023 71.0068 79.3117 70.9549C79.177 70.945 79.0417 70.945 78.907 70.9549Z" fill="#F4BDC6"/>
<path d="M72.3175 69.2213C72.0832 69.2164 71.8502 69.2587 71.6326 69.3459C71.3732 69.4911 71.6326 69.6883 72.2552 69.7921C72.5498 69.8434 72.8488 69.8642 73.1477 69.8543C73.3793 69.8558 73.6089 69.8098 73.8222 69.7194C74.092 69.5845 73.8221 69.377 73.1995 69.2732C72.9061 69.2477 72.611 69.2477 72.3175 69.2732V69.2213Z" fill="#F4BDC6"/>
<path d="M165.991 66.304C165.75 66.3295 165.506 66.3295 165.265 66.304C164.767 66.2106 164.528 66.0341 164.746 65.8888C164.925 65.8079 165.12 65.7654 165.316 65.7642C165.558 65.7387 165.801 65.7387 166.043 65.7642C166.541 65.8576 166.769 66.0341 166.562 66.1794C166.384 66.2653 166.188 66.308 165.991 66.304ZM161.456 65.9199C161.109 65.942 160.761 65.9211 160.419 65.8576C159.713 65.733 159.381 65.4735 159.692 65.2763C159.94 65.1624 160.208 65.1023 160.481 65.0998C160.828 65.0777 161.177 65.0986 161.519 65.1621C162.224 65.2866 162.556 65.5462 162.245 65.7331C162 65.8561 161.73 65.9201 161.456 65.9199ZM162.494 63.0443C160.739 63.0464 159.007 63.4475 157.43 64.2174C155.811 65.2555 157.077 66.221 160.169 67.093C160.78 67.3966 161.408 67.667 162.048 67.9028C164.206 68.1517 166.386 68.1517 168.544 67.9028C170.744 67.7678 172.632 67.7263 173.629 67.093C174.023 66.8757 174.334 66.532 174.511 66.1172C174.516 65.7703 174.499 65.4235 174.459 65.079C172.709 64.3047 170.878 63.7301 169 63.3661C166.853 62.9902 164.671 62.8578 162.494 62.9716V63.0443Z" fill="#952500"/>
<path d="M162.587 62.3177C160.833 62.3188 159.102 62.7162 157.523 63.4805C155.604 64.7158 157.679 66.3665 162.152 67.1658C164.298 67.5472 166.481 67.6796 168.658 67.5603C170.412 67.5593 172.143 67.1618 173.722 66.3976C175.642 65.1622 173.566 63.5116 169.094 62.7122C166.947 62.336 164.764 62.2036 162.587 62.3177Z" fill="#B12600"/>
<path d="M165.379 64.9962C165.181 64.9922 164.986 65.0349 164.808 65.1207C164.601 65.2556 164.808 65.4424 165.327 65.5358C165.568 65.5613 165.812 65.5613 166.053 65.5358C166.25 65.5345 166.445 65.4921 166.624 65.4113C166.832 65.266 166.624 65.0792 166.105 64.9962C165.864 64.9655 165.62 64.9655 165.379 64.9962Z" fill="#F4BDC6"/>
<path d="M168.17 66.5533C168.041 66.5515 167.913 66.5799 167.797 66.6363C167.662 66.7193 167.797 66.8439 168.139 66.9061C168.294 66.9214 168.451 66.9214 168.606 66.9061C168.743 66.9393 168.886 66.9357 169.021 66.8957C169.156 66.8127 169.021 66.6882 168.679 66.6259C168.523 66.6107 168.367 66.6107 168.212 66.6259L168.17 66.5533Z" fill="#F4BDC6"/>
<path d="M160.564 64.3732C160.291 64.3757 160.023 64.4359 159.775 64.5497C159.474 64.7468 159.775 65.0062 160.502 65.1308C160.844 65.1942 161.192 65.2151 161.539 65.193C161.813 65.1932 162.083 65.1292 162.328 65.0062C162.629 64.8194 162.328 64.56 161.602 64.4355C161.259 64.3721 160.911 64.3512 160.564 64.3732Z" fill="#F4BDC6"/>
<path d="M151.11 74.9309C150.952 74.9516 150.791 74.9516 150.633 74.9309C150.301 74.8687 150.156 74.7337 150.301 74.6299C150.413 74.5697 150.537 74.5344 150.664 74.5261C150.823 74.5054 150.983 74.5054 151.141 74.5261C151.463 74.5884 151.619 74.7233 151.484 74.8271C151.371 74.895 151.242 74.9308 151.11 74.9309ZM152.677 74.36C152.436 74.3907 152.192 74.3907 151.951 74.36C151.442 74.2562 151.214 74.0485 151.432 73.8824C151.607 73.7842 151.803 73.7307 152.003 73.7267C152.246 73.7134 152.49 73.7308 152.729 73.7786C153.238 73.872 153.466 74.0797 153.248 74.2458C153.073 74.344 152.877 74.3975 152.677 74.4015V74.36ZM158.374 73.218C158.079 73.2419 157.782 73.2244 157.492 73.1661C156.89 73.0519 156.61 72.8028 156.88 72.6055C157.087 72.4832 157.324 72.4187 157.565 72.4187C157.856 72.3949 158.15 72.4124 158.437 72.4706C159.038 72.5847 159.319 72.8443 159.059 73.0312C158.851 73.1517 158.615 73.2161 158.374 73.218ZM151.961 71.1417C149.751 71.3078 147.489 71.1417 146.482 71.9203C146.078 72.2214 146.223 73.1557 146.15 73.4879C145.891 74.7233 147.925 76.0521 151.484 76.7477C153.637 77.1618 155.835 77.291 158.021 77.1318C159.814 77.1126 161.572 76.6336 163.127 75.7407C163.596 75.4178 163.922 74.9273 164.04 74.3703C164.04 74.0693 164.113 73.0727 163.874 72.782C163.168 71.91 161.031 72.0242 158.509 71.5259C156.353 71.112 154.151 70.9828 151.961 71.1417Z" fill="#952500"/>
<path d="M152.044 70.0104C150.251 70.0323 148.493 70.5149 146.939 71.4119C144.998 72.8549 147.063 74.7339 151.557 75.6267C153.713 76.0406 155.914 76.1697 158.104 76.0108C159.898 75.9889 161.656 75.5063 163.21 74.6093C165.151 73.1767 163.075 71.2873 158.592 70.3945C156.436 69.9806 154.234 69.8515 152.044 70.0104Z" fill="#B12600"/>
<path d="M157.606 71.2872C157.366 71.291 157.131 71.3553 156.922 71.474C156.652 71.6712 156.921 71.9202 157.534 72.0448C157.827 72.0806 158.123 72.0806 158.416 72.0448C158.653 72.0397 158.885 71.9755 159.09 71.858C159.36 71.6608 159.09 71.4117 158.478 71.2872C158.191 71.2344 157.898 71.217 157.606 71.2353V71.2872Z" fill="#E2A4AC"/>
<path d="M152.086 72.5642C151.885 72.563 151.688 72.6168 151.515 72.7199C151.297 72.8755 151.515 73.0934 152.034 73.1868C152.273 73.2346 152.517 73.2521 152.76 73.2387C152.961 73.232 153.158 73.1749 153.331 73.0727C153.549 72.917 153.331 72.7095 152.812 72.6057C152.571 72.575 152.327 72.575 152.086 72.6057V72.5642Z" fill="#E2A4AC"/>
<path d="M159.568 74.3083C159.436 74.3104 159.308 74.3461 159.194 74.4121C159.059 74.5159 159.194 74.6508 159.536 74.7234C159.691 74.7438 159.848 74.7438 160.003 74.7234C160.136 74.7267 160.266 74.6906 160.377 74.6196C160.522 74.5159 160.377 74.381 160.045 74.3187C159.886 74.2984 159.726 74.2984 159.568 74.3187V74.3083Z" fill="#F4BDC6"/>
<path d="M150.747 73.3738C150.617 73.376 150.489 73.4079 150.374 73.4672C150.239 73.5813 150.374 73.7163 150.716 73.7785C150.874 73.7992 151.035 73.7992 151.193 73.7785C151.32 73.7702 151.444 73.7348 151.557 73.6747C151.702 73.571 151.557 73.4361 151.224 73.3738C151.066 73.3481 150.905 73.3481 150.747 73.3738Z" fill="#E2A4AC"/>
<path d="M138.928 83.5892C138.581 83.607 138.232 83.5861 137.89 83.5269C137.164 83.4024 136.852 83.1428 137.132 82.956C137.394 82.8406 137.677 82.7805 137.963 82.7795C138.31 82.7617 138.658 82.7826 139 82.8418C139.737 82.9664 140.038 83.2259 139.758 83.4128C139.5 83.5383 139.215 83.5989 138.928 83.5892ZM132.266 83.0286C131.769 83.0522 131.272 83.0244 130.782 82.9456C129.744 82.7587 129.277 82.4057 129.744 82.1358C130.11 81.9747 130.506 81.8899 130.906 81.8867C131.406 81.867 131.907 81.8983 132.401 81.9801C133.438 82.1566 133.905 82.52 133.438 82.7795C133.075 82.9518 132.677 83.0371 132.276 83.0286H132.266ZM138.772 81.0666C138.341 81.0848 137.91 81.057 137.485 80.9835C136.614 80.8382 136.198 80.5267 136.582 80.2983C136.908 80.1494 137.262 80.0749 137.62 80.0803C138.047 80.0624 138.475 80.0903 138.896 80.1634C139.779 80.3191 140.183 80.6202 139.81 80.8486C139.484 80.9962 139.13 81.0706 138.772 81.0666ZM133.833 79.063C130.605 79.2187 127.42 79.1149 125.956 79.9973C125.313 80.3918 125.417 81.4611 125.365 81.8971C125.23 82.9352 127.087 83.4024 129.993 84.264C131.031 84.5755 131.902 85.5513 133.2 85.7797C136.001 86.2676 138.637 85.7797 141.366 85.7797C141.709 85.7797 142.809 86.0185 143.151 86.0081C146.378 85.842 148.724 85.6863 150.176 84.8142C150.83 84.4197 151.484 83.8591 151.536 83.4231C151.612 82.7755 151.5 82.1195 151.214 81.5337C150.176 80.4333 147.177 80.3399 143.379 79.6755C140.227 79.1443 137.026 78.9529 133.833 79.1045V79.063Z" fill="#952500"/>
<path d="M134.061 78.0042C130.844 78.1703 128.094 78.7101 126.631 79.5925C123.819 81.295 126.87 83.5893 133.438 84.7209C136.591 85.2557 139.791 85.4506 142.985 85.3023C146.202 85.1362 148.952 84.5963 150.415 83.7139C153.217 82.0217 150.176 79.7171 143.608 78.5855C140.455 78.0507 137.255 77.8558 134.061 78.0042Z" fill="#B12600"/>
<path d="M137.662 79.0213C137.305 79.0147 136.951 79.0855 136.624 79.2289C136.25 79.4572 136.624 79.7685 137.537 79.9241C137.959 79.994 138.387 80.0183 138.814 79.9968C139.171 80.0061 139.525 79.9352 139.851 79.7892C140.235 79.5609 139.851 79.2496 138.938 79.094C138.516 79.0287 138.089 79.0044 137.662 79.0213Z" fill="#F4BDC6"/>
<path d="M138.025 81.7206C137.738 81.711 137.453 81.7715 137.195 81.897C136.884 82.0838 137.195 82.3432 137.952 82.4678C138.295 82.5269 138.643 82.5478 138.99 82.53C139.276 82.5267 139.558 82.4668 139.82 82.3536C140.132 82.1668 139.82 81.9074 139.052 81.7829C138.71 81.723 138.362 81.7022 138.015 81.7206H138.025Z" fill="#F4BDC6"/>
<path d="M142.124 83.89C141.938 83.8879 141.754 83.9269 141.584 84.0041C141.377 84.1287 141.584 84.2947 142.072 84.3777C142.303 84.4032 142.536 84.4032 142.767 84.3777C142.953 84.3798 143.137 84.3408 143.307 84.2636C143.514 84.139 143.307 83.973 142.809 83.89C142.581 83.8648 142.351 83.8648 142.124 83.89Z" fill="#F4BDC6"/>
<path d="M130.969 80.828C130.568 80.8246 130.171 80.9097 129.806 81.0771C129.36 81.3365 129.806 81.6997 130.844 81.8761C131.338 81.9579 131.838 81.9892 132.338 81.9695C132.739 81.9663 133.134 81.8815 133.501 81.7204C133.936 81.4506 133.501 81.0978 132.463 80.9214C131.973 80.8341 131.476 80.8028 130.979 80.828H130.969Z" fill="#F4BDC6"/>
<path d="M115.133 70.8927C114.881 70.9182 114.628 70.9182 114.376 70.8927C113.857 70.7889 113.618 70.5916 113.836 70.4463C114.022 70.3605 114.223 70.3145 114.428 70.3113C114.681 70.2983 114.936 70.3157 115.185 70.3632C115.704 70.4567 115.943 70.6539 115.714 70.7993C115.534 70.8892 115.335 70.9354 115.133 70.9342V70.8927ZM110.412 69.4704C110.064 69.48 109.717 69.4557 109.374 69.3978C108.648 69.2628 108.336 68.9929 108.627 68.7853C108.882 68.6615 109.163 68.5976 109.447 68.5984C109.794 68.5799 110.142 68.6008 110.484 68.6607C111.211 68.7957 111.522 69.076 111.231 69.2732C110.981 69.4015 110.704 69.4691 110.422 69.4704H110.412ZM115.061 67.934C114.755 67.9492 114.448 67.9283 114.147 67.8717C113.525 67.7575 113.234 67.5291 113.504 67.3527C113.724 67.2453 113.965 67.1886 114.21 67.1866C114.515 67.1718 114.822 67.1927 115.123 67.2488C115.735 67.363 116.026 67.5914 115.756 67.7679C115.54 67.8768 115.302 67.9337 115.061 67.934ZM111.522 66.4183C109.26 66.5429 107.226 66.2938 106.188 66.9686C105.851 67.2383 105.621 67.6195 105.539 68.0438C105.457 68.4681 105.529 68.9077 105.742 69.2836C106.344 70.166 108.243 71.0173 111.076 71.5467C113.321 71.9484 115.605 72.0912 117.883 71.9724C119.683 71.9599 121.456 71.5412 123.072 70.7474C123.288 70.6299 123.476 70.4662 123.623 70.2679C123.769 70.0697 123.87 69.8416 123.919 69.5999C123.967 69.3583 123.962 69.1089 123.904 68.8694C123.845 68.63 123.735 68.4063 123.58 68.2143C122.781 67.4565 120.778 67.3008 118.288 66.8336C116.043 66.4301 113.758 66.2907 111.48 66.4183H111.522Z" fill="#952500"/>
<path d="M111.563 65.6398C109.765 65.6514 107.992 66.0665 106.375 66.8544C104.372 68.1624 106.51 69.9065 111.159 70.7682C113.403 71.1769 115.688 71.3198 117.966 71.1938C119.766 71.1846 121.54 70.7657 123.155 69.9688C125.157 68.6711 123.02 66.9271 118.371 66.0654C116.126 65.6589 113.841 65.5161 111.563 65.6398Z" fill="#B12600"/>
<path d="M114.241 66.4184C114 66.4162 113.762 66.4695 113.545 66.574C113.276 66.7505 113.546 66.9891 114.179 67.1033C114.48 67.1561 114.786 67.1735 115.092 67.1552C115.336 67.1571 115.577 67.1039 115.797 66.9995C116.067 66.8231 115.797 66.5844 115.154 66.4703C114.853 66.4171 114.546 66.3997 114.241 66.4184Z" fill="#F4BDC6"/>
<path d="M114.49 69.4806C114.288 69.4795 114.089 69.5257 113.909 69.6155C113.68 69.7608 113.909 69.958 114.438 70.0514C114.689 70.0822 114.944 70.0822 115.195 70.0514C115.401 70.0586 115.605 70.0121 115.787 69.9165C116.005 69.7712 115.787 69.574 115.247 69.4806C114.996 69.4498 114.741 69.4498 114.49 69.4806Z" fill="#F4BDC6"/>
<path d="M109.478 67.799C109.193 67.8021 108.913 67.8695 108.658 67.9962C108.347 68.1934 108.658 68.4735 109.405 68.6084C109.748 68.6676 110.096 68.6885 110.443 68.6707C110.727 68.6701 111.007 68.6063 111.263 68.4839C111.574 68.2764 111.263 68.0066 110.515 67.8717C110.173 67.8141 109.825 67.7898 109.478 67.799Z" fill="#F4BDC6"/>
<path d="M106.437 59.1411C106.337 59.1558 106.236 59.1558 106.136 59.1411C105.929 59.1411 105.835 59.0165 105.929 58.9439C105.997 58.9008 106.076 58.8791 106.157 58.8816C106.257 58.867 106.358 58.867 106.458 58.8816C106.666 58.8816 106.748 59.0165 106.665 59.0892C106.595 59.1263 106.517 59.1476 106.437 59.1515V59.1411ZM108.699 58.5079C108.596 58.5235 108.491 58.5235 108.388 58.5079C108.191 58.5079 108.098 58.3729 108.181 58.3106C108.252 58.2652 108.334 58.2401 108.419 58.238C108.516 58.2276 108.613 58.2276 108.71 58.238C108.917 58.238 109.011 58.3729 108.917 58.4456C108.85 58.4828 108.776 58.5041 108.699 58.5079ZM110.567 57.8227C110.416 57.8432 110.262 57.8432 110.111 57.8227C109.799 57.75 109.654 57.6151 109.789 57.5113C109.893 57.4419 110.016 57.4057 110.142 57.4074C110.293 57.3868 110.447 57.3868 110.598 57.4074C110.92 57.4697 111.055 57.6047 110.93 57.7085C110.822 57.7781 110.696 57.8142 110.567 57.8123V57.8227ZM105.524 58.1341C105.307 58.1649 105.087 58.1649 104.87 58.1341C104.434 58.0407 104.237 57.8435 104.424 57.6981C104.574 57.6056 104.746 57.5554 104.922 57.5528C105.135 57.517 105.353 57.517 105.565 57.5528C106.001 57.6358 106.209 57.8331 106.012 57.9888C105.864 58.0773 105.696 58.124 105.524 58.1238V58.1341ZM108.284 57.3971C108.102 57.428 107.916 57.428 107.734 57.3971C107.35 57.3244 107.184 57.1479 107.35 57.0233C107.48 56.9486 107.626 56.9059 107.776 56.8988C107.958 56.8743 108.143 56.8743 108.326 56.8988C108.699 56.9714 108.876 57.1375 108.71 57.2725C108.581 57.3477 108.434 57.3871 108.284 57.3867V57.3971ZM106.157 56.3589C104.777 56.4627 103.573 56.1721 102.94 56.66C101.716 57.6151 103.044 59.4629 105.846 60.0443C107.211 60.3223 108.608 60.4097 109.996 60.3038C111.298 60.2778 112.556 59.8256 113.577 59.0166C114.749 57.8123 113.11 57.1998 110.297 56.6081C108.932 56.3323 107.535 56.2485 106.147 56.3589H106.157Z" fill="#952500"/>
<path d="M106.302 55.5491C105.178 55.5667 104.079 55.8819 103.117 56.4627C101.902 57.4074 103.189 58.6531 105.991 59.2345C107.356 59.5125 108.753 59.5999 110.142 59.494C111.262 59.4717 112.356 59.1568 113.317 58.5805C114.542 57.6254 113.255 56.39 110.443 55.7983C109.077 55.5225 107.68 55.4386 106.292 55.5491H106.302Z" fill="#B12600"/>
<path d="M107.797 56.0784C107.647 56.078 107.5 56.1174 107.371 56.1925C107.205 56.3171 107.371 56.4935 107.755 56.5661C107.937 56.5969 108.123 56.5969 108.305 56.5661C108.455 56.5666 108.601 56.5272 108.731 56.452C108.897 56.3171 108.731 56.151 108.347 56.0784C108.165 56.0474 107.979 56.0474 107.797 56.0784Z" fill="#F4BDC6"/>
<path d="M110.152 56.5871C110.024 56.5852 109.897 56.6213 109.789 56.6908C109.654 56.7946 109.789 56.9295 110.111 57.0021C110.266 57.0226 110.423 57.0226 110.578 57.0021C110.701 57.0002 110.822 56.9682 110.931 56.9088C111.065 56.7946 110.931 56.6597 110.609 56.5974C110.457 56.5775 110.304 56.5775 110.152 56.5974V56.5871Z" fill="#F4BDC6"/>
<path d="M109.644 58.7155C109.562 58.7154 109.482 58.7408 109.415 58.7881C109.322 58.8504 109.415 58.9438 109.623 58.9853C109.723 58.9999 109.824 58.9999 109.924 58.9853C110.005 58.9835 110.085 58.9582 110.152 58.9127C110.235 58.8504 110.152 58.757 109.945 58.7155C109.845 58.7055 109.744 58.7055 109.644 58.7155Z" fill="#F4BDC6"/>
<path d="M108.419 57.4179C108.337 57.4178 108.258 57.4432 108.191 57.4905C108.098 57.5632 108.191 57.6462 108.399 57.6877C108.498 57.7023 108.6 57.7023 108.699 57.6877C108.779 57.6838 108.857 57.6625 108.928 57.6254C109.011 57.5528 108.928 57.4594 108.72 57.4179C108.62 57.4079 108.519 57.4079 108.419 57.4179Z" fill="#F4BDC6"/>
<path d="M106.157 58.0616C106.077 58.0619 105.998 58.0834 105.929 58.1239C105.835 58.1965 105.929 58.2795 106.136 58.321C106.236 58.3357 106.338 58.3357 106.437 58.321C106.517 58.3185 106.595 58.2972 106.666 58.2588C106.759 58.1861 106.666 58.0927 106.458 58.0512C106.358 58.0357 106.257 58.0357 106.157 58.0512V58.0616Z" fill="#F4BDC6"/>
<path d="M104.922 56.7224C104.747 56.7279 104.575 56.7779 104.424 56.8677C104.237 57.013 104.424 57.2101 104.881 57.2932C105.094 57.329 105.311 57.329 105.524 57.2932C105.699 57.2908 105.87 57.2444 106.022 57.1582C106.209 57.0026 106.022 56.8158 105.576 56.7224C105.36 56.6866 105.139 56.6866 104.922 56.7224Z" fill="#F4BDC6"/>
<path d="M92.2934 49.5592H92.9575C94.6075 49.4554 95.7178 48.9986 97.4508 48.926C99.8375 48.8325 101.415 49.9641 102.504 49.9641C102.774 49.9641 103.065 50.0264 103.335 49.9641C104.372 49.9641 105.41 49.6838 106.448 49.6423C106.904 49.6423 107.309 49.933 107.776 49.933C109.581 49.933 111.678 50.2859 113.483 50.3275C115.289 50.369 117.188 50.4936 119.004 50.5662C120.82 50.6389 122.605 50.6908 124.431 50.7946C126.257 50.8984 128.021 50.6908 129.827 50.7946C131.633 50.8984 133.418 50.9815 135.223 51.158C137.029 51.3344 138.824 51.5109 140.598 51.7186C142.373 51.9262 143.712 52.8709 145.424 53.12C147.136 53.3692 150.145 52.6114 151.826 52.8813C153.507 53.1512 154.836 53.3692 156.465 53.6702C158.094 53.9713 159.578 54.5942 161.176 54.916C162.774 55.2378 163.552 55.8296 165.047 56.1825C166.541 56.5355 169 56.7743 170.412 57.148C171.823 57.5217 172.414 56.8885 173.732 57.283C175.05 57.6775 177.167 57.9266 178.392 58.3211C179.616 58.7156 180.467 59.2139 181.577 59.6499C182.688 60.0859 182.74 60.6361 183.746 61.0825C184.753 61.5289 187.503 61.7988 188.385 62.266C189.267 62.7332 190.211 63.2003 190.969 63.6675C191.726 64.1347 190.751 64.7056 191.394 65.1624C192.013 65.6024 192.608 66.0736 193.179 66.5743C193.818 67.0128 194.431 67.4876 195.016 67.9965C195.28 68.4422 195.486 68.9203 195.628 69.4188C195.942 69.8628 196.206 70.3397 196.417 70.841C196.605 71.2952 196.727 71.7742 196.78 72.2633C196.78 72.72 195.13 73.073 194.964 73.5194C194.798 73.9658 195.555 74.5575 195.254 74.9417C194.864 75.408 194.43 75.8356 193.957 76.2186C193.511 76.6546 193.438 77.1321 192.919 77.537C192.401 77.9419 191.145 78.2637 190.45 78.6478C189.754 79.0319 190.585 79.6859 189.765 80.0804C188.945 80.4749 186.88 80.5891 185.936 80.9421C184.991 81.295 184.898 81.8349 183.86 82.1567C182.823 82.4785 179.896 82.3436 178.724 82.6342C177.551 82.9249 177.852 83.6724 176.576 83.9008C175.299 84.1292 174.23 84.5236 172.861 84.752C172.428 84.8162 171.991 84.8543 171.553 84.8662C170.63 84.8662 169.571 84.8662 168.648 84.9285C168.222 84.9285 167.838 84.9285 167.506 85.0116C166.053 85.2192 165.057 85.6137 163.521 85.7798L162.577 85.8525C161.415 85.8525 160.045 85.8525 158.872 85.8525H158.177C156.589 85.9874 155.79 86.5895 154.12 86.6934H153.954C152.304 86.766 149.948 86.3715 148.267 86.4338C146.586 86.4961 145.455 86.984 143.815 87.0463H143.618C141.854 87.0463 139.623 86.6207 137.849 86.6103H137.05C135.929 86.6103 134.86 86.7764 133.75 86.8179C133.386 86.8179 133.023 86.8179 132.639 86.8179C130.823 86.8179 128.997 86.8698 127.181 86.8179C125.365 86.766 123.476 86.195 121.66 86.0808C119.844 85.9666 117.997 85.9978 116.181 85.8525C114.365 85.7071 112.663 85.3957 110.858 85.2192C109.052 85.0427 107.309 84.8559 105.534 84.6482C103.76 84.4406 101.384 84.6482 99.6507 84.4614C97.9177 84.2745 96.6517 83.6308 94.9603 83.3609C93.2688 83.091 92.2207 82.5304 90.5915 82.2294C88.9623 81.9283 86.337 82.0425 84.77 81.7207C83.2031 81.3989 82.3833 80.8071 80.889 80.4541C79.3947 80.1012 78.0976 79.7171 76.7382 79.3433C75.3788 78.9696 74.5072 78.4921 73.1893 78.0976C71.8714 77.7031 69.4639 77.537 68.2394 77.0594C67.0149 76.5819 65.5206 76.2705 64.3999 75.8344C63.2792 75.3984 63.5179 74.7963 62.5217 74.3707C61.5255 73.945 60.3425 73.5194 59.4604 73.0626C58.5784 72.6058 57.385 72.1802 56.5963 71.713C55.8077 71.2459 55.3823 70.7787 54.7389 70.3012C54.0955 69.8236 54.4068 69.3461 53.9087 68.8789C53.4106 68.4118 50.972 67.9446 50.5985 67.4671C50.2249 66.9895 50.5154 66.512 50.2768 66.0448C50.0381 65.5777 50.8579 65.1313 50.7541 64.6641C50.6504 64.197 50.0069 63.709 50.0484 63.2419C50.09 62.7747 50.5777 62.3595 50.7541 61.9027C50.9305 61.4459 50.7541 60.9787 51.0965 60.5427C51.439 60.1067 52.5493 59.7537 52.9955 59.3281C53.579 58.8958 54.189 58.5006 54.8219 58.1446C55.3927 57.7294 55.2059 57.2311 55.8596 56.8366C56.5134 56.4421 58.0284 56.2033 58.8482 55.7984C59.668 55.3936 59.3566 54.8433 60.301 54.5008C61.2453 54.1582 62.3141 53.8364 63.4141 53.5145C64.514 53.1927 65.9046 52.9747 67.0772 52.684C68.2498 52.3933 69.5158 52.1338 70.7818 51.8743C72.0478 51.6147 72.8572 51.1891 74.1647 50.9503C75.4722 50.7116 77.174 50.587 78.6268 50.3794C79.0883 50.321 79.5523 50.2864 80.0173 50.2756C80.8579 50.2756 81.7607 50.2755 82.6012 50.2029C83.0163 50.2029 83.4106 50.2029 83.7738 50.1302C85.2992 49.9537 86.2435 49.5385 87.8624 49.4035C88.2256 49.4035 88.5992 49.3516 88.9935 49.3412C90.0312 49.3412 91.2557 49.3412 92.3556 49.2582L92.2934 49.5592ZM94.8876 47.5556C85.9239 47.8324 76.9911 48.7448 68.1564 50.2859C60.7057 51.6459 54.7493 53.4003 50.4532 55.5597C46.1571 57.719 43.7496 60.0859 43.2723 62.6605C42.7949 65.2351 44.31 70.0624 48.0457 72.8135C51.7814 75.5645 57.3124 78.1599 64.566 80.5268C72.6282 83.0642 80.8606 85.0243 89.201 86.3923C98.9622 88.0508 108.802 89.2046 118.682 89.8493C129.013 90.5524 139.373 90.7153 149.72 90.3372C158.682 90.0672 167.614 89.1722 176.451 87.6588C183.902 86.2885 189.858 84.5444 194.154 82.3747C198.45 80.205 203.255 77.7446 203.722 75.17C204.189 72.5955 202.186 67.8304 196.562 65.1209C192.411 63.1173 187.295 59.7745 180.042 57.4075C171.979 54.8702 163.747 52.9101 155.406 51.5421C145.649 49.8836 135.812 48.7297 125.936 48.0851C115.602 47.3802 105.238 47.2208 94.8876 47.6075V47.5556Z" fill="#FFAD5C" stroke="#F78E48" stroke-width="0.52"/>
<g style="mix-blend-mode:darken" opacity="0.5">
<path d="M84.5209 64.6122C81.2418 64.7264 79.571 65.505 80.7851 66.3459C81.9992 67.1868 85.6416 67.7889 88.9208 67.6747C92.1999 67.5605 93.8706 66.7819 92.6565 65.9306C91.4424 65.0794 87.8 64.498 84.5209 64.6122Z" fill="#E28959"/>
</g>
<g style="mix-blend-mode:darken" opacity="0.5">
<path d="M118.89 69.128C115.195 69.3149 113.307 70.2284 114.677 71.1524C116.046 72.0763 120.156 72.668 123.86 72.4812C127.565 72.2943 129.443 71.443 128.073 70.4672C126.704 69.4913 122.594 68.9411 118.89 69.128Z" fill="#E28959"/>
</g>
<g style="mix-blend-mode:darken" opacity="0.5">
<path d="M126.091 73.6646C123.663 73.7891 122.418 74.391 123.321 74.9929C124.223 75.5947 126.921 76.0306 129.35 75.8749C131.778 75.7193 133.023 75.1589 132.12 74.5467C131.218 73.9344 128.52 73.509 126.091 73.6646Z" fill="#E28959"/>
</g>
<g style="mix-blend-mode:darken" opacity="0.5">
<path d="M152.47 60.4075C150.031 60.532 148.796 61.1235 149.689 61.7358C150.581 62.348 153.29 62.7735 155.728 62.6178C158.167 62.4622 159.391 61.8914 158.488 61.2896C157.586 60.6877 154.888 60.2518 152.47 60.4075Z" fill="#E28959"/>
</g>
<g style="mix-blend-mode:darken" opacity="0.5">
<path d="M120.789 56.7119C118.36 56.8365 117.115 57.428 118.018 58.0402C118.921 58.6524 121.619 59.0779 124.047 58.9119C126.475 58.7458 127.721 58.1959 126.818 57.5836C125.915 56.9714 123.217 56.5459 120.789 56.7119Z" fill="#E28959"/>
</g>
<g style="mix-blend-mode:darken" opacity="0.5">
<path d="M122.096 79.5404C120.228 79.7479 119.274 80.2564 120.021 80.6819C121.512 81.187 123.104 81.3223 124.659 81.0762C126.527 80.8686 127.471 80.3602 126.735 79.9347C125.243 79.4296 123.652 79.2943 122.096 79.5404Z" fill="#E28959"/>
</g>
<g style="mix-blend-mode:darken" opacity="0.5">
<path d="M101.498 79.8936C97.8035 80.0805 95.9149 80.9941 97.2847 81.918C98.6544 82.8419 102.764 83.4441 106.468 83.2468C110.173 83.0496 112.051 82.1568 110.681 81.2328C109.312 80.3089 105.202 79.7068 101.498 79.8936Z" fill="#E28959"/>
</g>
<g style="mix-blend-mode:darken" opacity="0.5">
<path d="M102.307 60.0132C99.7233 60.1481 98.4053 60.7811 99.36 61.4244C100.315 62.0678 103.189 62.4622 105.783 62.3584C108.378 62.2546 109.685 61.6009 108.731 60.9471C107.776 60.2934 104.891 59.9094 102.307 60.0132Z" fill="#E28959"/>
</g>
<g style="mix-blend-mode:darken" opacity="0.5">
<path d="M99.6611 64.4252C96.5479 64.6433 94.9499 65.6606 96.0914 66.678C97.2328 67.6954 100.668 68.3598 103.781 68.1418C106.894 67.9238 108.482 66.9064 107.34 65.889C106.199 64.8716 102.764 64.2072 99.6611 64.4252Z" fill="#E28959"/>
</g>
<g style="mix-blend-mode:darken" opacity="0.5">
<path d="M110.816 74.0901C107.184 74.3496 105.316 75.5227 106.665 76.7166C108.014 77.9105 112.02 78.6787 115.652 78.4191C119.284 78.1596 121.131 76.9865 119.803 75.7927C118.475 74.5988 114.459 73.8409 110.837 74.0901H110.816Z" fill="#E28959"/>
</g>
<g style="mix-blend-mode:darken" opacity="0.5">
<path d="M86.2539 57.9682C83.1408 58.1862 81.5531 59.1932 82.6842 60.2209C83.8153 61.2487 87.2709 61.8923 90.3736 61.6743C93.4763 61.4563 95.0744 60.4493 93.9433 59.4216C92.8122 58.3938 89.3566 57.7502 86.2539 57.9682Z" fill="#E28959"/>
</g>
<g style="mix-blend-mode:darken" opacity="0.5">
<path d="M148.921 68.0793C143.577 68.4946 140.837 70.2387 142.788 71.9931C144.739 73.7476 150.664 74.8168 156.008 74.412C161.353 74.0071 164.092 72.2526 162.131 70.5086C160.17 68.7645 154.255 67.6745 148.921 68.0793Z" fill="#E28959"/>
</g>
<g style="mix-blend-mode:darken" opacity="0.5">
<path d="M122.957 62.1206C119.73 62.3593 118.07 63.4286 119.253 64.4771C120.436 65.5257 124.005 66.1901 127.233 65.9409C130.46 65.6918 132.11 64.6432 130.927 63.5843C129.744 62.5254 126.174 61.8714 122.957 62.1206Z" fill="#E28959"/>
</g>
<g style="mix-blend-mode:darken" opacity="0.5">
<path d="M161.477 77.4331C158.25 77.6822 156.589 78.7411 157.772 79.7896C158.955 80.8382 162.535 81.5026 165.752 81.2638C168.969 81.025 170.629 79.9557 169.457 78.8968C168.284 77.8379 164.694 77.1839 161.477 77.4331Z" fill="#E28959"/>
</g>
<g style="mix-blend-mode:darken" opacity="0.5">
<path d="M150.529 80.267C147.302 80.5058 145.652 81.5751 146.835 82.6236C148.018 83.6721 151.588 84.3365 154.815 84.0874C158.042 83.8382 159.692 82.7897 158.509 81.7308C157.326 80.6719 153.756 80.0179 150.529 80.267Z" fill="#E28959"/>
</g>
<g style="mix-blend-mode:darken" opacity="0.5">
<path d="M73.3344 66.4807C70.0553 66.5949 68.3846 67.3735 69.5987 68.2143C70.8129 69.0552 74.4552 69.647 77.7344 69.5328C81.0135 69.4186 82.6842 68.64 81.4701 67.7991C80.256 66.9582 76.6136 66.3665 73.3344 66.4807Z" fill="#E28959"/>
</g>
<g style="mix-blend-mode:darken" opacity="0.5">
<path d="M89.8755 73.571C84.5936 73.7579 81.9059 75.0036 83.8568 76.3636C85.8077 77.7236 91.6811 78.6683 96.9526 78.4399C102.224 78.2115 104.922 76.9969 102.971 75.6473C101.02 74.2977 95.147 73.3322 89.8755 73.571Z" fill="#E28959"/>
</g>
<path fill-rule="evenodd" clip-rule="evenodd" d="M93.3414 114.328L0.114136 74.6093V54.3137L93.3414 93.0154V114.328Z" fill="#F5F4EE"/>
<path fill-rule="evenodd" clip-rule="evenodd" d="M93.2895 114.328L257.765 108.826V87.5652L93.2895 92.5586V114.328Z" fill="#CCC6C0"/>
<path fill-rule="evenodd" clip-rule="evenodd" d="M248.582 1.36865L253.303 18.093L173.867 55.2064L156.901 50.2441L248.582 1.36865Z" fill="#8E5326"/>
<path d="M251 86.4334L93.5489 91.6241L6.496 55.4762L157.887 50.2855L251 86.4334ZM157.887 50.2855L251 86.4334L157.887 50.2855ZM158.115 48.9048L0.114136 54.2927L93.2687 93.0152L257.734 87.5857L158.115 48.9256V48.9048Z" fill="#FFD9B0"/>
<path fill-rule="evenodd" clip-rule="evenodd" d="M96.2781 21.4256L255.742 15.4356L255.628 12.7261L249.848 2.14746L92.1273 7.27585L90.083 5.83284L89.4708 7.3589L96.2781 21.4256Z" fill="#D8A37C"/>
<g style="mix-blend-mode:multiply" opacity="0.5">
<path d="M230.297 76.9554L189.827 61.2484L187.129 59.8885C184.799 58.7787 182.4 57.8182 179.948 57.0128L178.412 56.5249L175.424 55.6529L169.467 53.3171L158.053 48.9258L142.3 48.8323C137.267 48.2094 131.633 47.6904 125.572 47.2855C119.014 46.8495 112.352 46.6211 105.763 46.6211C101.996 46.6211 98.1978 46.6938 94.4725 46.8391C85.4841 47.1216 76.5271 48.0409 67.6686 49.5902C64.7319 50.13 61.0792 50.9813 58.1217 51.8014L15.441 53.3378L10.3251 58.5285L14.6109 59.4317L38.3639 68.7022H38.5299C39.1629 67.6018 41.1346 64.612 42.5666 63.9268H42.8156C44.3444 64.0062 45.8683 64.1621 47.3815 64.394L50.1522 64.8611C50.5361 65.0168 51.0965 65.266 51.6257 65.5152C52.3467 65.8827 53.1006 66.1816 53.8775 66.408C74.3929 69.4601 120.291 76.6544 120.706 76.727L190.979 76.0315L198.087 75.9588H198.17C198.834 75.7086 199.536 75.5717 200.246 75.5539C200.661 75.5325 201.073 75.6259 201.439 75.8239C202.186 76.291 203.691 82.5094 204.656 87.9908L215.635 87.6067L227.485 77.4433L230.297 76.9554Z" fill="#8E5326"/>
</g>
<path fill-rule="evenodd" clip-rule="evenodd" d="M91.7019 6.44531L94.5763 23.7407L18.8758 60.2311L14.2684 59.9716L1.68109 54.9885L91.7019 6.44531Z" fill="#D8A37C"/>
<path fill-rule="evenodd" clip-rule="evenodd" d="M90.0208 5.83301L92.8952 23.1283L16.0118 60.7504L0 54.3762L90.0208 5.83301Z" fill="#F5F4EE"/>
<path fill-rule="evenodd" clip-rule="evenodd" d="M96.9007 19.8995L257.278 14.2313L250.46 0.621338L90.083 5.83278L96.9007 19.8995Z" fill="#E6E4DA"/>
<path fill-rule="evenodd" clip-rule="evenodd" d="M185.905 3.1958C185.928 5.33957 185.113 7.40757 183.634 8.95899C182.155 10.5104 180.129 11.4225 177.987 11.5009C176.945 11.5036 175.913 11.3003 174.95 10.9027C173.987 10.5051 173.112 9.921 172.375 9.18395C171.638 8.44691 171.054 7.57148 170.657 6.60797C170.259 5.64445 170.056 4.61186 170.059 3.56953L185.905 3.1958Z" fill="#CC8B5A"/>
<path fill-rule="evenodd" clip-rule="evenodd" d="M185.956 4.37932C186.932 5.67699 187.513 5.57318 187.472 6.4556C187.387 7.19498 187.248 7.92712 187.056 8.64606C186.589 9.74649 185.469 10.5666 183.248 10.7223C180.768 10.8563 178.291 10.4013 176.021 9.3945C173.75 8.38771 171.75 6.8577 170.183 4.92954L170.059 3.56958L185.956 4.37932Z" fill="#E89C69"/>
<path fill-rule="evenodd" clip-rule="evenodd" d="M185.905 2.91553C188.613 6.52824 187.638 8.98862 183.196 9.31044C180.676 9.41547 178.167 8.93161 175.867 7.89725C173.566 6.86289 171.539 5.3065 169.945 3.35154L185.905 2.91553Z" fill="#F9F7ED"/>
<defs>
<linearGradient id="paint0_linear_228_15272" x1="124.101" y1="28.6057" x2="122.779" y2="99.3734" gradientUnits="userSpaceOnUse">
<stop stop-color="#FFD561"/>
<stop offset="0.77" stop-color="#FFBC46"/>
<stop offset="1" stop-color="#FFB43D"/>
</linearGradient>
</defs>
</svg>
