<svg width="21" height="20" fill="none" xmlns="http://www.w3.org/2000/svg"><g fill="#FF7010"><path d="M1.959 14.457a.77.77 0 0 1-.544-1.314L13.443 1.115a.77.77 0 1 1 1.088 1.089L2.503 14.232a.768.768 0 0 1-.544.225Z"/><path d="M.77 20a.77.77 0 0 1-.753-.931l1.19-5.543a.77.77 0 0 1 1.505.323l-1.19 5.543A.77.77 0 0 1 .77 20ZM6.315 18.811a.77.77 0 0 1-.544-1.314L17.797 5.47a.77.77 0 1 1 1.089 1.088L6.859 18.585a.768.768 0 0 1-.544.226Z"/><path d="M.77 20a.77.77 0 0 1-.162-1.522l5.543-1.19a.77.77 0 0 1 .323 1.506L.931 19.983A.75.75 0 0 1 .77 20ZM16.162 8.96a.766.766 0 0 1-.544-.226l-4.354-4.353a.77.77 0 1 1 1.089-1.089l4.354 4.354a.77.77 0 0 1-.545 1.314ZM18.343 6.783a.77.77 0 0 1-.545-1.314 2.289 2.289 0 0 0 .665-1.632c0-.625-.236-1.205-.665-1.633a2.289 2.289 0 0 0-1.633-.665c-.624 0-1.204.236-1.632.665a.77.77 0 1 1-1.089-1.089A3.816 3.816 0 0 1 16.165 0c1.036 0 2.003.396 2.722 1.115a3.816 3.816 0 0 1 1.115 2.722 3.816 3.816 0 0 1-1.115 2.72.766.766 0 0 1-.544.226Z"/></g></svg>