<svg width="72" height="72" fill="none" xmlns="http://www.w3.org/2000/svg"><g filter="url(#a)"><circle cx="36" cy="34" r="28" fill="#FF7010"/></g><path d="M31.781 37.5h12.704a.7.7 0 0 0 .675-.508l2.813-9.8a.697.697 0 0 0-.676-.892H30.158l-.503-2.252a.702.702 0 0 0-.686-.548h-4.266a.701.701 0 1 0 0 1.4h3.701l2.54 11.375a2.101 2.101 0 0 0-1.272 1.925c0 1.158.946 2.1 2.11 2.1h12.703a.701.701 0 1 0 0-1.4H31.78a.702.702 0 0 1-.703-.7c0-.386.316-.7.703-.7Z" fill="#fff"/><path d="M31.078 42.4c0 1.158.946 2.1 2.11 2.1 1.163 0 2.11-.942 2.11-2.1 0-1.158-.947-2.1-2.11-2.1-1.164 0-2.11.942-2.11 2.1ZM40.969 42.4c0 1.158.946 2.1 2.11 2.1 1.163 0 2.109-.942 2.109-2.1 0-1.158-.947-2.1-2.11-2.1-1.163 0-2.11.942-2.11 2.1Z" fill="#fff"/><defs><filter id="a" x="0" y="0" width="72" height="72" filterUnits="userSpaceOnUse" color-interpolation-filters="sRGB"><feFlood flood-opacity="0" result="BackgroundImageFix"/><feColorMatrix in="SourceAlpha" values="0 0 0 0 0 0 0 0 0 0 0 0 0 0 0 0 0 0 127 0" result="hardAlpha"/><feOffset dy="2"/><feGaussianBlur stdDeviation="4"/><feComposite in2="hardAlpha" operator="out"/><feColorMatrix values="0 0 0 0 0.0980392 0 0 0 0 0.0980392 0 0 0 0 0.0980392 0 0 0 0.2 0"/><feBlend in2="BackgroundImageFix" result="effect1_dropShadow_2_3"/><feBlend in="SourceGraphic" in2="effect1_dropShadow_2_3" result="shape"/></filter></defs></svg>