<svg width="14" height="20" fill="none" xmlns="http://www.w3.org/2000/svg"><g fill="#FF7010"><path d="M7.02 3.906c-1.476-.01-2.685 1.206-2.696 2.714-.011 1.508 1.18 2.744 2.656 2.755H7c1.467 0 2.665-1.213 2.676-2.714.012-1.507-1.18-2.743-2.656-2.755ZM7 8.594h-.014c-1.054-.008-1.906-.891-1.898-1.968.008-1.072.864-1.939 1.912-1.939h.014c1.055.009 1.906.891 1.898 1.968C8.904 7.727 8.048 8.594 7 8.594Z"/><path d="M9.346 14.705c2.543-3.345 4.132-5.088 4.154-8.014C13.527 3.009 10.602 0 7 0 3.437 0 .526 2.946.5 6.591c-.022 3.005 1.597 4.747 4.158 8.113C2.11 15.094.5 16.07.5 17.266c0 .8.725 1.519 2.04 2.023C3.737 19.747 5.321 20 7 20c1.679 0 3.263-.253 4.46-.711 1.315-.504 2.04-1.223 2.04-2.023 0-1.195-1.609-2.172-4.154-2.561ZM1.265 6.597C1.289 3.38 3.857.78 6.999.78c3.18 0 5.76 2.656 5.736 5.904-.02 2.778-1.706 4.49-4.396 8.075A76.66 76.66 0 0 0 7 16.592a73.844 73.844 0 0 0-1.336-1.834c-2.802-3.734-4.42-5.316-4.4-8.162ZM7 19.219c-3.282 0-5.735-1.031-5.735-1.953 0-.684 1.466-1.548 3.931-1.847a69.5 69.5 0 0 1 1.492 2.072.38.38 0 0 0 .312.165.38.38 0 0 0 .312-.164c.464-.67.955-1.35 1.495-2.073 2.463.3 3.928 1.163 3.928 1.847 0 .922-2.452 1.953-5.735 1.953Z"/></g></svg>