<svg xmlns="http://www.w3.org/2000/svg" width="20" height="24" fill="none"><path fill-rule="evenodd" clip-rule="evenodd" d="M10 0C6.83 0 4.25 2.58 4.25 5.75S6.83 11.5 10 11.5s5.75-2.58 5.75-5.75S13.17 0 10 0ZM5.53 5.75A4.474 4.474 0 0 1 10 1.28a4.474 4.474 0 0 1 4.47 4.47A4.474 4.474 0 0 1 10 10.22a4.474 4.474 0 0 1-4.47-4.47ZM5.157 14C2.314 14 0 16.375 0 19.292v4.094c0 .339.268.614.598.614h18.804c.33 0 .598-.275.598-.614v-4.094C20 16.375 17.686 14 14.843 14H5.157Zm-3.96 5.292c0-2.24 1.776-4.064 3.96-4.064h9.686c2.184 0 3.96 1.823 3.96 4.064v3.48H1.197v-3.48Z" fill="#444"/></svg>