<svg width="32" height="32" fill="none" xmlns="http://www.w3.org/2000/svg"><g fill="#FF7010"><path d="M31.814.18a.625.625 0 0 0-.649-.144L5.205 9.292A3.417 3.417 0 0 0 .26 13.513a33.513 33.513 0 0 0 7.3 10.926 33.511 33.511 0 0 0 10.927 7.3 3.424 3.424 0 0 0 4.467-1.85 3.408 3.408 0 0 0-.02-2.655L31.967.827a.625.625 0 0 0-.152-.647ZM9.136 9.218l2.751-.98a1.59 1.59 0 0 1-.192 2.352 1.582 1.582 0 0 1-1.178.316 1.583 1.583 0 0 1-1.056-.61 1.581 1.581 0 0 1-.325-1.078ZM21.8 29.411a2.171 2.171 0 0 1-2.834 1.174c-8.002-3.315-14.235-9.548-17.55-17.55a2.155 2.155 0 0 1 0-1.66A2.155 2.155 0 0 1 2.59 10.2a2.155 2.155 0 0 1 1.66 0c.535.222.952.639 1.173 1.174a27.95 27.95 0 0 0 6.09 9.113 27.952 27.952 0 0 0 9.113 6.09 2.171 2.171 0 0 1 1.174 2.833Zm5.552-18.953a1.582 1.582 0 0 1-1.226-.622 1.595 1.595 0 0 1 1.472-2.55c.27.037.522.14.737.3l-.983 2.872ZM28.75 6.37a2.842 2.842 0 0 0-3.615 4.227c.445.58 1.083.96 1.802 1.075l-1.242 3.633-1.429-1.096a.625.625 0 0 0-.76.991l1.762 1.353L22.037 26a3.405 3.405 0 0 0-.933-.577C14.48 22.679 9.32 17.52 6.578 10.897a3.419 3.419 0 0 0-.351-.642l1.674-.596c.058.504.252.985.569 1.398a2.824 2.824 0 0 0 2.261 1.113c.622 0 1.223-.203 1.725-.588a2.838 2.838 0 0 0 .665-3.785l7.77-2.77.294.711a.625.625 0 0 0 1.155-.478l-.27-.653 8.294-2.958L28.75 6.37Z"/><path d="M6.75 16.767a.625.625 0 1 0 0 0ZM5.8 15.214a29.582 29.582 0 0 1-1.628-3.321.625.625 0 1 0-1.155.478 30.818 30.818 0 0 0 1.697 3.463.625.625 0 1 0 1.085-.62ZM19.558 8a2.85 2.85 0 0 0-3.19 2.448 2.846 2.846 0 0 0 2.822 3.213 2.85 2.85 0 0 0 2.816-2.472 2.846 2.846 0 0 0-2.448-3.19Zm1.209 3.026a1.596 1.596 0 0 1-1.788 1.371 1.595 1.595 0 0 1-1.371-1.787 1.596 1.596 0 0 1 1.787-1.371c.87.114 1.486.916 1.372 1.787ZM19.396 15.773a2.85 2.85 0 0 0-3.19 2.448c-.1.753.1 1.5.563 2.102a2.825 2.825 0 0 0 2.258 1.112 2.85 2.85 0 0 0 2.816-2.472 2.846 2.846 0 0 0-2.447-3.19Zm1.208 3.027a1.596 1.596 0 0 1-1.787 1.371 1.583 1.583 0 0 1-1.056-.61 1.583 1.583 0 0 1-.316-1.177 1.596 1.596 0 0 1 1.787-1.372c.871.115 1.486.917 1.372 1.788ZM15.273 13.184l-1.92-.253a.625.625 0 1 0-.164 1.24l1.921.253a.625.625 0 0 0 .163-1.24ZM14.3 17.796l-.17-1.289a.625.625 0 1 0-1.24.163l.17 1.29a.625.625 0 1 0 1.24-.164Z"/></g></svg>