<svg width="24" height="22" fill="none" xmlns="http://www.w3.org/2000/svg"><g fill="#fff"><path d="M7.781 14.5h12.704a.7.7 0 0 0 .675-.508l2.813-9.8a.697.697 0 0 0-.676-.892H6.158l-.503-2.252A.702.702 0 0 0 4.97.5H.703a.701.701 0 1 0 0 1.4h3.701l2.54 11.375A2.101 2.101 0 0 0 5.672 15.2c0 1.158.946 2.1 2.11 2.1h12.703a.701.701 0 1 0 0-1.4H7.78a.702.702 0 0 1-.703-.7c0-.386.316-.7.703-.7Z"/><path d="M7.078 19.4c0 1.158.946 2.1 2.11 2.1 1.163 0 2.11-.942 2.11-2.1 0-1.158-.947-2.1-2.11-2.1-1.164 0-2.11.942-2.11 2.1ZM16.969 19.4c0 1.158.946 2.1 2.11 2.1 1.162 0 2.109-.942 2.109-2.1 0-1.158-.947-2.1-2.11-2.1-1.163 0-2.11.942-2.11 2.1Z"/></g></svg>