<svg width="97" height="16" fill="none" xmlns="http://www.w3.org/2000/svg"><g fill="#191919"><path d="M1.57 5.534V0H0v12.596h1.57V6.79h.367l5.69 5.805h2.078L3.29 6.066 9.2 0H7.226L1.937 5.534h-.366ZM11.73 16c1.667 0 2.418-.646 3.22-2.828l3.675-9.986h-1.597l-2.575 7.742h-.14L11.73 3.186h-1.623l3.482 9.418-.175.56c-.392 1.134-.864 1.544-1.728 1.544-.21 0-.445-.009-.628-.043v1.283c.21.034.471.052.672.052ZM26.436 11.339h-4.643v-.14c.445-.585.69-1.589.777-2.732l.296-4.024h3.57v6.896Zm-5.769 3.745v-2.488h7.358v2.488h1.414v-3.745h-1.502V3.186h-6.415l-.366 5.246c-.087 1.266-.428 2.453-1.117 2.907h-.786v3.745h1.414ZM34.317 11.444c-1.09 0-1.902-.56-1.902-1.52 0-.942.628-1.44 2.06-1.536l2.53-.165v.864c0 1.344-1.143 2.357-2.688 2.357Zm-.279 1.318c1.257 0 2.287-.55 2.898-1.554h.14v1.388h1.43V6.154c0-1.955-1.282-3.134-3.578-3.134-2.007 0-3.49.995-3.692 2.505h1.52c.209-.742.994-1.17 2.12-1.17 1.405 0 2.13.638 2.13 1.799v.855l-2.715.166c-2.19.131-3.43 1.1-3.43 2.785 0 1.72 1.353 2.802 3.177 2.802ZM52.602 12.596h1.501v-9.41h-7.61v9.41h1.5V4.443h4.609v8.153ZM58.59 12.596l4.686-7.018h.14v7.018h1.5v-9.41h-1.5l-4.687 7.018h-.14V3.186h-1.501v9.41h1.501ZM76.935 15.084v-3.745h-1.501V3.186h-1.501v8.153H69.41V3.186h-1.5v9.41h7.61v2.488h1.414ZM87.932 15.084v-3.745H86.43V3.186h-1.502v8.153h-4.52V3.186h-1.502v9.41h7.61v2.488h1.415ZM92.81 11.444c-1.09 0-1.902-.56-1.902-1.52 0-.942.628-1.44 2.06-1.536l2.53-.165v.864c0 1.344-1.143 2.357-2.687 2.357Zm-.279 1.318c1.257 0 2.287-.55 2.898-1.554h.14v1.388h1.43V6.154c0-1.955-1.282-3.134-3.578-3.134-2.007 0-3.49.995-3.691 2.505h1.518c.21-.742.995-1.17 2.121-1.17 1.405 0 2.13.638 2.13 1.799v.855l-2.715.166c-2.19.131-3.43 1.1-3.43 2.785 0 1.72 1.353 2.802 3.177 2.802Z"/></g></svg>