<svg width="151" height="140" xmlns="http://www.w3.org/2000/svg"><g fill="none" fill-rule="evenodd"><rect fill="#584B86" x="22" width="2" height="14" rx="1"/><rect fill="#584B86" transform="rotate(90 7 23)" x="6" y="16" width="2" height="14" rx="1"/><rect fill="#584B86" transform="rotate(-45 12 12)" x="11" y="5" width="2" height="14" rx="1"/><ellipse fill="#000" opacity=".08" cx="79" cy="129.5" rx="72" ry="10.5"/><rect fill="#FFF" x="22" y="22" width="114" height="106" rx="9"/><path fill="#CDCADD" d="M23 47h112V29l-3-4-4-2H29.995L26 25l-2 2-1 3z"/><circle stroke="#584B86" stroke-width="2" fill="#FFF" cx="33.5" cy="34.5" r="2.5"/><circle stroke="#584B86" stroke-width="2" fill="#FFF" cx="43.5" cy="34.5" r="2.5"/><circle stroke="#584B86" stroke-width="2" fill="#FFF" cx="53.5" cy="34.5" r="2.5"/><path fill="#584B86" d="M22 45h114v2H22z"/><path fill="#000" opacity=".08" d="M24 47h110v2H24z"/><rect stroke="#584B86" stroke-width="2" x="23" y="23" width="112" height="104" rx="9"/><g><circle fill="#584B86" cx="56.5" cy="72.5" r="3.5"><animate attributeName="ry" repeatCount="indefinite" fill="freeze" values="3.5;3.5;3.5;3.5;3.5;3.5;3.5;3.5;3.5;3.5;3.5;3.5;3.5;3.5;3.5;3.5;3.5;3.5;3.5;3.5;3.5;3.5;0.5;2" from="3.5" to=".5" dur="3s"/></circle><circle fill="#584B86" cx="101.5" cy="72.5" r="3.5"><animate attributeName="ry" repeatCount="indefinite" fill="remove" values="3.5;3.5;3.5;3.5;3.5;3.5;3.5;3.5;3.5;3.5;3.5;3.5;3.5;3.5;3.5;3.5;3.5;3.5;3.5;3.5;3.5;3.5;0.5;2" from="3.5" to=".5" dur="3s"/></circle><animateMotion dur="6s" fill="freeze" calcMode="linear" repeatCount="indefinite" keyPoints="0; 0; 0; 0; 0; 0; 0.25; 0.25; 0.25; 0.75; 0.75; 0.75; 0.75; 1; 1" keyTimes="0; 0.1; 0.2; 0.3; 0.4; 0.5; 0.6; 0.65; 0.7; 0.75; 0.8; 0.825; 0.85; 0.9; 1" path="M 0 0 C 5 2, 5 2, 12 0 C 0 3, 0 3, -10 0 H 0"/><rect fill="#584B86" x="65" y="94" width="28" height="2" rx="1"/></g></g></svg>