<svg width="72" height="72" viewBox="0 0 72 72" fill="none" xmlns="http://www.w3.org/2000/svg">
<g filter="url(#filter0_d_2_3)">
<circle cx="36" cy="34" r="28" fill="#FF7010"/>
</g>
<path d="M31.7813 37.5001H44.4846C44.7991 37.5001 45.0751 37.293 45.1602 36.9922L47.9729 27.1921C48.0333 26.9808 47.9919 26.7539 47.8588 26.5783C47.7255 26.4033 47.5183 26.3 47.2971 26.3H30.158L29.6554 24.0483C29.584 23.7277 29.2983 23.5 28.9688 23.5H24.7031C24.3146 23.5 24 23.8132 24 24.2C24 24.587 24.3146 24.9 24.7031 24.9H28.4044L30.9435 36.2749C30.1965 36.5983 29.6719 37.3386 29.6719 38.2001C29.6719 39.358 30.6182 40.3 31.7813 40.3H44.4846C44.8733 40.3 45.1877 39.987 45.1877 39.6C45.1877 39.2132 44.8733 38.9 44.4846 38.9H31.7813C31.394 38.9 31.0781 38.5863 31.0781 38.2001C31.0781 37.8138 31.394 37.5001 31.7813 37.5001Z" fill="white"/>
<path d="M31.0781 42.4C31.0781 43.5581 32.0244 44.5 33.1877 44.5C34.3508 44.5 35.2971 43.5581 35.2971 42.4C35.2971 41.2421 34.3508 40.3 33.1877 40.3C32.0244 40.3 31.0781 41.2421 31.0781 42.4Z" fill="white"/>
<path d="M40.9689 42.4C40.9689 43.5581 41.9152 44.5 43.0782 44.5C44.2415 44.5 45.1876 43.5581 45.1876 42.4C45.1876 41.2421 44.2415 40.3 43.0782 40.3C41.9152 40.3 40.9689 41.2421 40.9689 42.4Z" fill="white"/>
<defs>
<filter id="filter0_d_2_3" x="0" y="0" width="72" height="72" filterUnits="userSpaceOnUse" color-interpolation-filters="sRGB">
<feFlood flood-opacity="0" result="BackgroundImageFix"/>
<feColorMatrix in="SourceAlpha" type="matrix" values="0 0 0 0 0 0 0 0 0 0 0 0 0 0 0 0 0 0 127 0" result="hardAlpha"/>
<feOffset dy="2"/>
<feGaussianBlur stdDeviation="4"/>
<feComposite in2="hardAlpha" operator="out"/>
<feColorMatrix type="matrix" values="0 0 0 0 0.0980392 0 0 0 0 0.0980392 0 0 0 0 0.0980392 0 0 0 0.2 0"/>
<feBlend mode="normal" in2="BackgroundImageFix" result="effect1_dropShadow_2_3"/>
<feBlend mode="normal" in="SourceGraphic" in2="effect1_dropShadow_2_3" result="shape"/>
</filter>
</defs>
</svg>
