<svg xmlns="http://www.w3.org/2000/svg" width="20" height="24" viewBox="0 0 20 24" fill="none">
  <path fill-rule="evenodd" clip-rule="evenodd" d="M10.0001 0C6.82975 0 4.25 2.57975 4.25 5.75011C4.25 8.92046 6.82974 11.5 10.0001 11.5C13.1705 11.5 15.7502 8.92046 15.7502 5.75011C15.7502 2.57975 13.1705 0 10.0001 0ZM5.53069 5.75011C5.53069 3.28522 7.53545 1.28069 10.0001 1.28069C12.4648 1.28069 14.4695 3.28522 14.4695 5.75011C14.4695 8.21479 12.4648 10.2193 10.0001 10.2193C7.53546 10.2193 5.53069 8.21479 5.53069 5.75011Z" fill="#444"/>
  <path fill-rule="evenodd" clip-rule="evenodd" d="M5.15663 14C2.31367 14 0 16.3746 0 19.2923V23.386C0 23.7248 0.268106 24 0.598291 24H19.4017C19.7319 24 20 23.7248 20 23.386V19.2923C20 16.3746 17.6863 14 14.8434 14H5.15663ZM1.19658 19.2923C1.19658 17.0512 2.973 15.2281 5.15663 15.2281H14.8434C17.027 15.2281 18.8034 17.0512 18.8034 19.2923V22.7719H1.19658V19.2923Z" fill="#444"/>
</svg>