<svg width="48" height="48" viewBox="0 0 48 48" fill="none" xmlns="http://www.w3.org/2000/svg">
<rect width="48" height="48" rx="6" fill="#FF7010"/>
<g clip-path="url(#clip0_16445_4668)">
<path d="M31.6875 22.4664L17.6047 16.7099C17.0115 16.4674 16.3412 16.5741 15.8556 16.9882C15.3699 17.4024 15.1668 18.0407 15.3256 18.6538L16.579 23.4962H22.7163C22.9987 23.4962 23.2277 23.7218 23.2277 24C23.2277 24.2782 22.9987 24.5038 22.7163 24.5038H16.579L15.3256 29.3462C15.1668 29.9593 15.3699 30.5975 15.8556 31.0117C16.3422 31.4267 17.0125 31.5321 17.6048 31.29L31.6875 25.5336C32.3287 25.2715 32.727 24.6838 32.727 24C32.727 23.3161 32.3287 22.7285 31.6875 22.4664Z" fill="white"/>
</g>
<defs>
<clipPath id="clip0_16445_4668">
<rect width="17.4545" height="17.4545" fill="white" transform="translate(15.2725 15.2727)"/>
</clipPath>
</defs>
</svg>
